<?xml version="1.0" encoding="UTF-8" standalone="no"?>
<svg width="164px" height="32px" viewBox="0 0 164 32" version="1.1" xmlns="http://www.w3.org/2000/svg" xmlns:xlink="http://www.w3.org/1999/xlink">
    <!-- Generator: Sketch 40.1 (33804) - http://www.bohemiancoding.com/sketch -->
    <title>logoRedmine_ajustado</title>
    <desc>Created with Sketch.</desc>
    <defs></defs>
    <g id="Page-1" stroke="none" stroke-width="1" fill="none" fill-rule="evenodd">
        <g id="logoRedmine_ajustado">
            <g id="logoSmartRedmine">
                <g id="Group">
                    <g id="Shape" fill="#90AC2B">
                        <path d="M25.3638478,23.4666667 C25.422971,22.8740741 25.4820942,22.2814815 25.422971,21.6888889 L26.6054348,21.037037 C27.0192971,20.8592593 27.1966667,20.3851852 27.0192971,19.9703704 L26.3098188,18.0148148 C26.1324493,17.6 25.718587,17.362963 25.3047246,17.4814815 L24.0040145,17.837037 C23.6492754,17.3037037 23.235413,16.8888889 22.7624275,16.4740741 L23.1762899,15.1703704 C23.2945362,14.7555556 23.1171667,14.2814815 22.7033043,14.1037037 L20.8113623,13.2740741 C20.3975,13.0962963 19.9245145,13.2148148 19.6880217,13.6296296 L19.0376667,14.7555556 C18.3873116,14.637037 17.7369565,14.637037 17.0274783,14.6962963 L16.4362464,13.5111111 C16.2588768,13.0962963 15.7858913,12.9185185 15.372029,13.0962963 L13.4209638,13.8074074 C13.0071014,13.9851852 12.7706087,14.4 12.8888551,14.8148148 L13.184471,16.0592593 C12.6523623,16.4148148 12.1793768,16.8888889 11.7655145,17.4222222 L10.5830507,17.0666667 C10.1691884,16.9481481 9.6962029,17.1259259 9.51883333,17.5407407 L8.6911087,19.437037 C8.51373913,19.8518519 8.63198551,20.3259259 9.04584783,20.562963 L10.1100652,21.2148148 C9.99181884,21.8666667 9.99181884,22.5185185 10.050942,23.1703704 L8.86847826,23.5851852 C8.45461594,23.762963 8.27724638,24.237037 8.45461594,24.6518519 L9.1640942,26.5481481 C9.34146377,26.962963 9.75532609,27.2 10.1691884,27.0814815 L11.292529,26.7851852 C11.7063913,27.3185185 12.1793768,27.8518519 12.7114855,28.2666667 L12.3567464,29.3925926 C12.2385,29.8074074 12.4158696,30.2814815 12.8297319,30.4592593 L14.7216739,31.2888889 C15.1355362,31.4666667 15.6085217,31.3481481 15.8450145,30.9333333 L16.4362464,29.9259259 C17.1457246,30.0444444 17.8552029,30.0444444 18.5646812,29.9851852 L19.0967899,31.0518519 C19.2741594,31.4666667 19.7471449,31.6444444 20.1610072,31.4666667 L22.1120725,30.7555556 C22.5259348,30.5777778 22.7624275,30.162963 22.6441812,29.7481481 L22.3485652,28.5037037 C22.8806739,28.0888889 23.3536594,27.6740741 23.7675217,27.1407407 L25.0091087,27.5555556 C25.422971,27.6740741 25.8959565,27.4962963 26.0733261,27.0814815 L26.9010507,25.1851852 C27.0784203,24.7703704 26.9601739,24.2962963 26.5463116,24.0592593 L25.3638478,23.4666667 L25.3638478,23.4666667 Z M16.2588768,25.4814815 C14.5443043,24.7111111 13.7757029,22.6962963 14.5443043,20.9777778 C15.3129058,19.2592593 17.3230942,18.4888889 19.0376667,19.2592593 C20.7522391,20.0296296 21.5208406,22.0444444 20.7522391,23.762963 C19.9836377,25.4814815 17.9734493,26.2518519 16.2588768,25.4814815 L16.2588768,25.4814815 Z"></path>
                        <path d="M0.295615942,11.5555556 L0.886847826,12.8592593 C1.06421739,13.2740741 1.5372029,13.4518519 1.95106522,13.2740741 L2.71966667,13.037037 C3.0744058,13.4518519 3.48826812,13.8666667 3.96125362,14.162963 L3.78388406,14.9925926 C3.66563768,15.4074074 3.90213043,15.8222222 4.31599275,16 L5.67582609,16.4740741 C6.08968841,16.5925926 6.56267391,16.4148148 6.74004348,16.0592593 L7.09478261,15.2888889 C7.68601449,15.3481481 8.27724638,15.2888889 8.80935507,15.1703704 L9.28234058,15.8814815 C9.51883333,16.237037 9.99181884,16.4148148 10.4056812,16.1777778 L11.7063913,15.5851852 C12.1202536,15.4074074 12.2976232,14.9333333 12.1202536,14.5185185 L11.8246377,13.6296296 C12.2385,13.2740741 12.5932391,12.8592593 12.8888551,12.4444444 L13.7757029,12.6222222 C14.1895652,12.7407407 14.6034275,12.5037037 14.7807971,12.0888889 L15.2537826,10.7259259 C15.372029,10.3111111 15.1946594,9.83703704 14.8399203,9.65925926 L13.9530725,9.24444444 C14.0121957,8.77037037 13.9530725,8.23703704 13.8939493,7.76296296 L14.7216739,7.22962963 C15.076413,6.99259259 15.2537826,6.51851852 15.0172899,6.1037037 L14.426058,4.8 C14.2486884,4.38518519 13.7757029,4.20740741 13.3618406,4.38518519 L12.4158696,4.74074074 C12.0611304,4.32592593 11.7063913,4.02962963 11.292529,3.73333333 L11.5290217,2.78518519 C11.6472681,2.37037037 11.4107754,1.95555556 10.996913,1.77777778 L9.63707971,1.3037037 C9.22321739,1.18518519 8.75023188,1.36296296 8.57286232,1.71851852 L8.159,2.54814815 C7.6268913,2.48888889 7.09478261,2.54814815 6.50355072,2.60740741 L6.03056522,1.83703704 C5.79407246,1.48148148 5.32108696,1.3037037 4.90722464,1.54074074 L3.60651449,2.13333333 C3.19265217,2.31111111 3.01528261,2.78518519 3.19265217,3.2 L3.48826812,4.08888889 C3.0744058,4.44444444 2.71966667,4.85925926 2.42405072,5.27407407 L1.59632609,5.0962963 C1.18246377,4.97777778 0.768601449,5.21481481 0.591231884,5.62962963 L0.118246377,6.99259259 C-1.0269563e-15,7.40740741 0.177369565,7.88148148 0.532108696,8.05925926 L1.30071014,8.41481481 C1.24158696,8.94814815 1.30071014,9.48148148 1.35983333,10.0148148 L0.591231884,10.4296296 C0.236492754,10.6666667 0.0591231884,11.1407407 0.295615942,11.5555556 L0.295615942,11.5555556 Z M8.51373913,6.28148148 C9.93269565,6.81481481 10.7012971,8.41481481 10.2283116,9.83703704 C9.6962029,11.2592593 8.09987681,12.0296296 6.68092029,11.5555556 C5.26196377,11.0222222 4.49336232,9.42222222 4.96634783,8 C5.43933333,6.51851852 7.03565942,5.74814815 8.51373913,6.28148148 L8.51373913,6.28148148 Z"></path>
                        <path d="M26.0142029,10.0148148 C26.4280652,10.1333333 26.9010507,9.95555556 27.0784203,9.54074074 L27.4331594,8.77037037 C27.610529,8.35555556 27.4922826,7.88148148 27.0784203,7.64444444 L26.5463116,7.28888889 C26.6054348,6.87407407 26.6054348,6.45925926 26.6054348,6.1037037 L27.1966667,5.80740741 C27.610529,5.62962963 27.7878986,5.15555556 27.610529,4.74074074 L27.314913,3.91111111 C27.1375435,3.4962963 26.7236812,3.25925926 26.3098188,3.37777778 L25.6594638,3.55555556 C25.422971,3.2 25.1273551,2.9037037 24.8317391,2.60740741 L25.0682319,1.95555556 C25.1864783,1.54074074 25.0091087,1.06666667 24.5952464,0.888888889 L23.7675217,0.592592593 C23.3536594,0.414814815 22.8806739,0.533333333 22.6441812,0.948148148 L22.289442,1.48148148 C21.8755797,1.42222222 21.4025942,1.36296296 20.9887319,1.42222222 L20.6931159,0.888888889 C20.5157464,0.474074074 20.0427609,0.296296296 19.6288986,0.474074074 L18.8011739,0.77037037 C18.3873116,0.948148148 18.1508188,1.36296296 18.2690652,1.77777778 L18.3873116,2.37037037 C18.0325725,2.60740741 17.6778333,2.9037037 17.4413406,3.25925926 L16.9092319,3.08148148 C16.4953696,2.96296296 16.0223841,3.14074074 15.8450145,3.55555556 L15.4902754,4.32592593 C15.3129058,4.74074074 15.4311522,5.21481481 15.8450145,5.45185185 L16.318,5.74814815 C16.2588768,6.16296296 16.1997536,6.63703704 16.2588768,7.05185185 L15.7858913,7.28888889 C15.372029,7.46666667 15.1946594,7.94074074 15.372029,8.35555556 L15.6676449,9.18518519 C15.8450145,9.6 16.2588768,9.83703704 16.6727391,9.71851852 L17.1457246,9.48148148 C17.3822174,9.83703704 17.7369565,10.1925926 18.0916957,10.4888889 L17.9143261,11.0222222 C17.7960797,11.437037 17.9734493,11.9111111 18.3873116,12.0888889 L19.155913,12.4444444 C19.5697754,12.6222222 20.0427609,12.5037037 20.2792536,12.0888889 L20.5748696,11.6148148 C21.0478551,11.6740741 21.5208406,11.7333333 21.9938261,11.6740741 L22.2303188,12.1481481 C22.4076884,12.562963 22.8806739,12.7407407 23.2945362,12.562963 L24.1222609,12.2666667 C24.5361232,12.0888889 24.7726159,11.6740741 24.6543696,11.2592593 L24.5361232,10.6666667 C24.8908623,10.4296296 25.1864783,10.1333333 25.4820942,9.77777778 L26.0142029,10.0148148 L26.0142029,10.0148148 Z M20.4566232,8.59259259 C19.3332826,8.05925926 18.8602971,6.6962963 19.3924058,5.57037037 C19.9245145,4.44444444 21.2843478,3.97037037 22.4076884,4.5037037 C23.531029,5.03703704 24.0040145,6.4 23.4719058,7.52592593 C22.9397971,8.65185185 21.5799638,9.12592593 20.4566232,8.59259259 L20.4566232,8.59259259 Z"></path>
                    </g>
                    <g transform="translate(32.517754, 21.333333)" id="Shape" fill="#000000">
                        <path d="M1.24158696,7.17037037 C1.18246377,7.11111111 1.12334058,7.05185185 1.12334058,6.93333333 L1.12334058,3.08148148 L0.413862319,3.08148148 C0.236492754,3.08148148 0.177369565,3.02222222 0.177369565,2.84444444 C0.177369565,2.66666667 0.236492754,2.60740741 0.413862319,2.60740741 L1.12334058,2.60740741 L1.12334058,1.95555556 C1.12334058,1.71851852 1.12334058,1.48148148 1.18246377,1.3037037 C1.24158696,1.12592593 1.30071014,0.948148148 1.35983333,0.82962963 C1.41895652,0.711111111 1.5372029,0.651851852 1.65544928,0.533333333 C1.77369565,0.474074074 1.89194203,0.414814815 2.01018841,0.414814815 C2.12843478,0.414814815 2.24668116,0.355555556 2.42405072,0.355555556 L3.01528261,0.355555556 C3.0744058,0.355555556 3.13352899,0.355555556 3.19265217,0.414814815 C3.25177536,0.474074074 3.25177536,0.533333333 3.25177536,0.592592593 C3.25177536,0.651851852 3.25177536,0.711111111 3.19265217,0.77037037 C3.13352899,0.82962963 3.0744058,0.82962963 3.01528261,0.82962963 L2.60142029,0.82962963 C2.42405072,0.82962963 2.24668116,0.888888889 2.18755797,0.948148148 C2.06931159,1.00740741 2.01018841,1.12592593 1.95106522,1.3037037 C1.89194203,1.48148148 1.89194203,1.77777778 1.89194203,2.19259259 L1.89194203,2.48888889 L2.77878986,2.48888889 C2.95615942,2.48888889 3.01528261,2.54814815 3.01528261,2.72592593 C3.01528261,2.78518519 3.01528261,2.84444444 2.95615942,2.9037037 C2.89703623,2.96296296 2.83791304,2.96296296 2.77878986,2.96296296 L1.89194203,2.96296296 L1.89194203,6.81481481 C1.89194203,6.93333333 1.83281884,6.99259259 1.77369565,7.05185185 C1.71457246,7.11111111 1.59632609,7.17037037 1.5372029,7.17037037 C1.35983333,7.28888889 1.30071014,7.22962963 1.24158696,7.17037037 L1.24158696,7.17037037 Z"></path>
                        <path d="M4.19774638,7.17037037 C4.13862319,7.11111111 4.13862319,7.05185185 4.13862319,6.93333333 L4.13862319,0.82962963 C4.13862319,0.711111111 4.19774638,0.651851852 4.25686957,0.592592593 C4.31599275,0.533333333 4.43423913,0.474074074 4.49336232,0.474074074 C4.55248551,0.474074074 4.67073188,0.533333333 4.72985507,0.592592593 C4.78897826,0.651851852 4.84810145,0.77037037 4.84810145,0.82962963 L4.84810145,6.93333333 C4.84810145,7.05185185 4.78897826,7.11111111 4.72985507,7.17037037 C4.67073188,7.22962963 4.55248551,7.28888889 4.49336232,7.28888889 C4.43423913,7.28888889 4.31599275,7.22962963 4.19774638,7.17037037 L4.19774638,7.17037037 Z"></path>
                        <path d="M8.33636957,7.40740741 C7.68601449,7.40740741 7.1539058,7.17037037 6.68092029,6.75555556 C6.26705797,6.28148148 6.03056522,5.68888889 6.03056522,4.97777778 C6.03056522,4.5037037 6.08968841,4.08888889 6.26705797,3.73333333 C6.44442754,3.37777778 6.68092029,3.08148148 7.03565942,2.84444444 C7.39039855,2.60740741 7.80426087,2.48888889 8.27724638,2.48888889 C8.57286232,2.48888889 8.86847826,2.54814815 9.10497101,2.60740741 C9.34146377,2.66666667 9.51883333,2.78518519 9.6962029,2.96296296 C9.87357246,3.14074074 9.99181884,3.25925926 10.1100652,3.4962963 C10.2283116,3.67407407 10.2874348,3.91111111 10.346558,4.14814815 C10.4056812,4.38518519 10.4056812,4.62222222 10.4056812,4.85925926 C10.4056812,4.91851852 10.4056812,4.97777778 10.346558,5.03703704 C10.2874348,5.0962963 10.2283116,5.0962963 10.1100652,5.0962963 L6.74004348,5.0962963 C6.74004348,5.68888889 6.91741304,6.16296296 7.21302899,6.45925926 C7.50864493,6.75555556 7.92250725,6.93333333 8.39549275,6.93333333 C8.75023188,6.93333333 8.98672464,6.87407407 9.22321739,6.75555556 C9.45971014,6.63703704 9.6962029,6.51851852 9.93269565,6.28148148 C9.99181884,6.22222222 10.050942,6.22222222 10.1100652,6.22222222 C10.1691884,6.22222222 10.2283116,6.22222222 10.2874348,6.28148148 C10.346558,6.34074074 10.346558,6.4 10.346558,6.45925926 C10.346558,6.51851852 10.2874348,6.63703704 10.2283116,6.6962963 C9.99181884,6.93333333 9.75532609,7.11111111 9.45971014,7.22962963 C9.1640942,7.28888889 8.80935507,7.40740741 8.33636957,7.40740741 L8.33636957,7.40740741 L8.33636957,7.40740741 Z M9.81444928,4.56296296 C9.81444928,4.08888889 9.63707971,3.67407407 9.40058696,3.37777778 C9.1640942,3.08148148 8.80935507,2.9037037 8.33636957,2.9037037 C7.86338406,2.9037037 7.50864493,3.08148148 7.21302899,3.37777778 C6.91741304,3.67407407 6.79916667,4.08888889 6.74004348,4.56296296 L9.81444928,4.56296296 L9.81444928,4.56296296 Z"></path>
                        <path d="M14.7807971,7.11111111 L13.3618406,5.33333333 L11.9428841,7.17037037 C11.8837609,7.22962963 11.8246377,7.28888889 11.7063913,7.28888889 C11.5881449,7.28888889 11.5290217,7.22962963 11.4698986,7.17037037 C11.4107754,7.11111111 11.3516522,7.05185185 11.3516522,6.93333333 C11.3516522,6.87407407 11.3516522,6.81481481 11.4107754,6.75555556 L13.0071014,4.8 L11.5881449,3.02222222 C11.5290217,2.96296296 11.5290217,2.9037037 11.5290217,2.84444444 C11.5290217,2.72592593 11.5881449,2.66666667 11.6472681,2.60740741 C11.7063913,2.54814815 11.7655145,2.48888889 11.8837609,2.48888889 C12.0020072,2.48888889 12.0611304,2.54814815 12.1793768,2.66666667 L13.480087,4.32592593 L14.7807971,2.66666667 C14.8399203,2.60740741 14.8990435,2.54814815 15.0172899,2.54814815 C15.076413,2.54814815 15.1946594,2.54814815 15.2537826,2.60740741 C15.3129058,2.66666667 15.372029,2.72592593 15.372029,2.78518519 C15.372029,2.84444444 15.372029,2.9037037 15.3129058,2.96296296 L13.8939493,4.8 L15.4311522,6.6962963 C15.4902754,6.75555556 15.4902754,6.81481481 15.4902754,6.87407407 C15.4902754,6.99259259 15.4311522,7.05185185 15.372029,7.11111111 C15.3129058,7.17037037 15.2537826,7.22962963 15.1355362,7.22962963 C14.9581667,7.28888889 14.8399203,7.22962963 14.7807971,7.11111111 L14.7807971,7.11111111 Z"></path>
                        <path d="M16.6727391,1.24444444 C16.5544928,1.18518519 16.5544928,1.06666667 16.5544928,0.888888889 C16.5544928,0.77037037 16.6136159,0.651851852 16.6727391,0.533333333 C16.7909855,0.474074074 16.9092319,0.414814815 17.0274783,0.414814815 C17.1457246,0.414814815 17.263971,0.474074074 17.3822174,0.533333333 C17.5004638,0.592592593 17.5004638,0.711111111 17.5004638,0.888888889 C17.5004638,1.06666667 17.4413406,1.12592593 17.3822174,1.24444444 C17.3230942,1.36296296 17.1457246,1.36296296 17.0274783,1.36296296 C16.9092319,1.36296296 16.7909855,1.3037037 16.6727391,1.24444444 L16.6727391,1.24444444 Z M16.7909855,7.17037037 C16.7318623,7.11111111 16.6727391,6.99259259 16.6727391,6.87407407 L16.6727391,2.84444444 C16.6727391,2.72592593 16.7318623,2.66666667 16.7909855,2.60740741 C16.8501087,2.54814815 16.9683551,2.48888889 17.0274783,2.48888889 C17.1457246,2.48888889 17.2048478,2.54814815 17.263971,2.60740741 C17.3230942,2.66666667 17.3822174,2.72592593 17.3822174,2.84444444 L17.3822174,6.87407407 C17.3822174,6.99259259 17.3230942,7.05185185 17.263971,7.11111111 C17.2048478,7.17037037 17.0866014,7.22962963 17.0274783,7.22962963 C16.9092319,7.28888889 16.8501087,7.22962963 16.7909855,7.17037037 L16.7909855,7.17037037 Z"></path>
                        <path d="M20.3383768,7.11111111 C20.0427609,6.93333333 19.8062681,6.6962963 19.6880217,6.34074074 L19.6880217,6.93333333 C19.6880217,6.99259259 19.6880217,7.11111111 19.6288986,7.17037037 C19.5697754,7.22962963 19.5106522,7.28888889 19.3332826,7.28888889 C19.2150362,7.28888889 19.155913,7.28888889 19.0967899,7.22962963 C19.0376667,7.17037037 18.9194203,7.05185185 18.9194203,6.93333333 L18.9194203,0.77037037 C18.9194203,0.651851852 18.9785435,0.592592593 19.0376667,0.533333333 C19.0967899,0.474074074 19.2150362,0.474074074 19.2741594,0.474074074 C19.3924058,0.474074074 19.451529,0.474074074 19.5106522,0.533333333 C19.5697754,0.592592593 19.6288986,0.651851852 19.6288986,0.77037037 L19.6288986,3.37777778 C19.7471449,3.08148148 19.9836377,2.84444444 20.2792536,2.66666667 C20.5748696,2.48888889 20.8704855,2.42962963 21.2252246,2.42962963 C21.5799638,2.42962963 21.8755797,2.48888889 22.1120725,2.60740741 C22.3485652,2.72592593 22.585058,2.9037037 22.7624275,3.14074074 C22.9397971,3.37777778 23.0580435,3.61481481 23.1762899,3.91111111 C23.2945362,4.20740741 23.2945362,4.5037037 23.2945362,4.85925926 C23.2945362,5.21481481 23.235413,5.51111111 23.1762899,5.80740741 C23.1171667,6.1037037 22.9989203,6.34074074 22.8215507,6.57777778 C22.6441812,6.81481481 22.4668116,6.99259259 22.1711957,7.11111111 C21.9347029,7.22962963 21.5799638,7.28888889 21.2843478,7.28888889 C20.9296087,7.40740741 20.6339928,7.28888889 20.3383768,7.11111111 L20.3383768,7.11111111 Z M21.8164565,6.75555556 C21.9938261,6.6962963 22.1120725,6.57777778 22.2303188,6.45925926 C22.3485652,6.34074074 22.4076884,6.16296296 22.4668116,5.98518519 C22.5259348,5.80740741 22.585058,5.62962963 22.585058,5.45185185 C22.585058,5.27407407 22.6441812,5.0962963 22.6441812,4.91851852 C22.6441812,4.68148148 22.6441812,4.44444444 22.585058,4.20740741 C22.5259348,3.97037037 22.4668116,3.79259259 22.3485652,3.55555556 C22.2303188,3.37777778 22.1120725,3.2 21.8755797,3.08148148 C21.6982101,2.96296296 21.4617174,2.9037037 21.1661014,2.9037037 C20.9296087,2.9037037 20.7522391,2.96296296 20.5748696,3.02222222 C20.3975,3.08148148 20.2792536,3.2 20.1610072,3.31851852 C20.0427609,3.43703704 19.9245145,3.61481481 19.8653913,3.73333333 C19.8062681,3.91111111 19.7471449,4.08888889 19.6880217,4.26666667 C19.6288986,4.44444444 19.6288986,4.62222222 19.6288986,4.85925926 C19.6288986,5.0962963 19.6288986,5.27407407 19.6880217,5.45185185 C19.7471449,5.62962963 19.7471449,5.80740741 19.8653913,5.98518519 C19.9245145,6.16296296 20.0427609,6.28148148 20.1610072,6.45925926 C20.2792536,6.57777778 20.4566232,6.6962963 20.6339928,6.75555556 C20.8113623,6.81481481 21.0478551,6.87407407 21.2843478,6.87407407 C21.4617174,6.87407407 21.639087,6.87407407 21.8164565,6.75555556 L21.8164565,6.75555556 Z"></path>
                        <path d="M24.7726159,7.17037037 C24.7134928,7.11111111 24.6543696,6.99259259 24.6543696,6.87407407 L24.6543696,0.82962963 C24.6543696,0.711111111 24.7134928,0.651851852 24.7726159,0.592592593 C24.8317391,0.533333333 24.9499855,0.474074074 25.0091087,0.474074074 C25.0682319,0.474074074 25.1864783,0.533333333 25.2456014,0.592592593 C25.3047246,0.651851852 25.3638478,0.77037037 25.3638478,0.82962963 L25.3638478,6.93333333 C25.3638478,7.05185185 25.3047246,7.11111111 25.2456014,7.17037037 C25.1864783,7.22962963 25.0682319,7.28888889 25.0091087,7.28888889 C24.9499855,7.28888889 24.8317391,7.22962963 24.7726159,7.17037037 L24.7726159,7.17037037 Z"></path>
                        <path d="M28.8521159,7.40740741 C28.2017609,7.40740741 27.6696522,7.17037037 27.1966667,6.75555556 C26.7828043,6.28148148 26.5463116,5.68888889 26.5463116,4.97777778 C26.5463116,4.5037037 26.6054348,4.08888889 26.7828043,3.73333333 C26.9601739,3.37777778 27.1966667,3.08148148 27.5514058,2.84444444 C27.9061449,2.60740741 28.3200072,2.48888889 28.7929928,2.48888889 C29.0886087,2.48888889 29.3842246,2.54814815 29.6207174,2.60740741 C29.8572101,2.66666667 30.0345797,2.78518519 30.2119493,2.96296296 C30.3893188,3.08148148 30.5075652,3.25925926 30.6258116,3.4962963 C30.744058,3.67407407 30.8031812,3.91111111 30.8623043,4.14814815 C30.9214275,4.38518519 30.9214275,4.62222222 30.9214275,4.85925926 C30.9214275,4.91851852 30.9214275,4.97777778 30.8623043,5.03703704 C30.8031812,5.0962963 30.744058,5.0962963 30.6258116,5.0962963 L27.2557899,5.0962963 C27.2557899,5.68888889 27.4331594,6.16296296 27.7287754,6.45925926 C28.0243913,6.75555556 28.4382536,6.93333333 28.9112391,6.93333333 C29.2659783,6.93333333 29.502471,6.87407407 29.7389638,6.75555556 C29.9754565,6.63703704 30.2119493,6.51851852 30.448442,6.28148148 C30.5075652,6.22222222 30.5666884,6.22222222 30.6258116,6.22222222 C30.6849348,6.22222222 30.744058,6.22222222 30.8031812,6.28148148 C30.8623043,6.34074074 30.8623043,6.4 30.8623043,6.45925926 C30.8623043,6.51851852 30.8031812,6.63703704 30.744058,6.6962963 C30.5075652,6.93333333 30.2710725,7.11111111 29.9754565,7.22962963 C29.6798406,7.34814815 29.3251014,7.40740741 28.8521159,7.40740741 L28.8521159,7.40740741 L28.8521159,7.40740741 Z M30.3893188,4.56296296 C30.3893188,4.08888889 30.2119493,3.67407407 29.9754565,3.37777778 C29.7389638,3.08148148 29.3842246,2.9037037 28.9112391,2.9037037 C28.4382536,2.9037037 28.0835145,3.08148148 27.7878986,3.37777778 C27.4922826,3.67407407 27.3740362,4.08888889 27.314913,4.56296296 L30.3893188,4.56296296 L30.3893188,4.56296296 Z"></path>
                        <path d="M35.2374203,9.00740741 C35.1782971,8.94814815 35.1191739,8.88888889 35.1191739,8.77037037 L35.1191739,2.84444444 C35.1191739,2.72592593 35.1782971,2.66666667 35.2374203,2.60740741 C35.2965435,2.54814815 35.4147899,2.54814815 35.473913,2.54814815 C35.5921594,2.54814815 35.7104058,2.60740741 35.769529,2.66666667 C35.8286522,2.72592593 35.8286522,2.78518519 35.8286522,2.9037037 L35.8286522,3.4962963 C36.0060217,3.2 36.1833913,2.9037037 36.4790072,2.72592593 C36.7746232,2.54814815 37.1293623,2.48888889 37.4841014,2.48888889 C37.8388406,2.48888889 38.1344565,2.54814815 38.3709493,2.66666667 C38.607442,2.78518519 38.8439348,2.96296296 39.0213043,3.2 C39.1986739,3.43703704 39.3169203,3.67407407 39.3760435,3.97037037 C39.4351667,4.26666667 39.4942899,4.56296296 39.4942899,4.91851852 C39.4942899,5.21481481 39.4351667,5.57037037 39.3760435,5.86666667 C39.2577971,6.16296296 39.1395507,6.4 38.9621812,6.63703704 C38.7848116,6.87407407 38.5483188,7.05185185 38.3118261,7.17037037 C38.0753333,7.28888889 37.7205942,7.34814815 37.4249783,7.34814815 C37.0702391,7.34814815 36.7155,7.28888889 36.4790072,7.11111111 C36.1833913,6.93333333 36.0060217,6.6962963 35.8286522,6.4 L35.8286522,8.77037037 C35.8286522,8.88888889 35.769529,8.94814815 35.7104058,9.00740741 C35.6512826,9.06666667 35.5330362,9.06666667 35.473913,9.06666667 C35.3556667,9.06666667 35.2965435,9.06666667 35.2374203,9.00740741 L35.2374203,9.00740741 Z M38.0753333,6.6962963 C38.2527029,6.57777778 38.4300725,6.4 38.5483188,6.22222222 C38.6665652,6.04444444 38.7256884,5.80740741 38.7848116,5.57037037 C38.8439348,5.33333333 38.8439348,5.0962963 38.8439348,4.85925926 C38.8439348,4.68148148 38.8439348,4.5037037 38.7848116,4.32592593 C38.7848116,4.14814815 38.7256884,3.97037037 38.6665652,3.79259259 C38.607442,3.61481481 38.4891957,3.43703704 38.4300725,3.31851852 C38.3118261,3.2 38.1935797,3.08148148 38.0162101,3.02222222 C37.8388406,2.96296296 37.661471,2.9037037 37.4249783,2.9037037 C37.1884855,2.9037037 36.9519928,2.96296296 36.7746232,3.02222222 C36.5972536,3.08148148 36.4198841,3.2 36.3016377,3.31851852 C36.1833913,3.43703704 36.0651449,3.61481481 36.0060217,3.79259259 C35.9468986,3.97037037 35.8877754,4.14814815 35.8286522,4.32592593 C35.769529,4.5037037 35.769529,4.74074074 35.769529,4.91851852 C35.769529,5.0962963 35.769529,5.33333333 35.8286522,5.51111111 C35.8877754,5.68888889 35.9468986,5.86666667 36.0060217,6.04444444 C36.0651449,6.22222222 36.1833913,6.34074074 36.3016377,6.45925926 C36.4198841,6.57777778 36.5381304,6.6962963 36.7155,6.75555556 C36.8928696,6.81481481 37.0702391,6.87407407 37.3067319,6.87407407 C37.6023478,6.87407407 37.8388406,6.81481481 38.0753333,6.6962963 L38.0753333,6.6962963 Z"></path>
                        <path d="M40.8541232,7.17037037 C40.795,7.11111111 40.7358768,7.05185185 40.7358768,6.93333333 L40.7358768,2.84444444 C40.7358768,2.72592593 40.795,2.66666667 40.8541232,2.60740741 C40.9132464,2.54814815 41.0314928,2.54814815 41.0906159,2.54814815 C41.2088623,2.54814815 41.2679855,2.54814815 41.3271087,2.60740741 C41.3862319,2.66666667 41.4453551,2.72592593 41.4453551,2.84444444 L41.4453551,3.43703704 C41.5044783,3.14074074 41.6818478,2.9037037 41.9183406,2.66666667 C42.1548333,2.48888889 42.4504493,2.37037037 42.8051884,2.37037037 C42.8643116,2.37037037 42.9234348,2.42962963 42.982558,2.48888889 C43.0416812,2.54814815 43.0416812,2.60740741 43.0416812,2.72592593 C43.0416812,2.78518519 43.0416812,2.84444444 42.982558,2.9037037 C42.9234348,2.96296296 42.8643116,2.96296296 42.7460652,2.96296296 C42.5095725,2.96296296 42.3322029,3.02222222 42.1548333,3.08148148 C41.9774638,3.14074074 41.8592174,3.25925926 41.740971,3.37777778 C41.6227246,3.4962963 41.5636014,3.67407407 41.5044783,3.79259259 C41.4453551,3.91111111 41.4453551,4.08888889 41.4453551,4.20740741 L41.4453551,6.87407407 C41.4453551,6.99259259 41.3862319,7.05185185 41.3271087,7.11111111 C41.2679855,7.17037037 41.1497391,7.17037037 41.0906159,7.17037037 C40.9723696,7.28888889 40.9132464,7.22962963 40.8541232,7.17037037 L40.8541232,7.17037037 Z"></path>
                        <path d="M44.4015145,6.6962963 C43.9876522,6.22222222 43.7511594,5.62962963 43.7511594,4.91851852 C43.7511594,4.14814815 43.9876522,3.55555556 44.4015145,3.14074074 C44.8153768,2.66666667 45.4066087,2.48888889 46.116087,2.48888889 C46.8255652,2.48888889 47.3576739,2.72592593 47.8306594,3.14074074 C48.2445217,3.61481481 48.4810145,4.20740741 48.4810145,4.91851852 C48.4810145,5.68888889 48.2445217,6.28148148 47.8306594,6.6962963 C47.4167971,7.17037037 46.8255652,7.34814815 46.116087,7.34814815 C45.4066087,7.34814815 44.8153768,7.17037037 44.4015145,6.6962963 L44.4015145,6.6962963 Z M47.2985507,3.43703704 C47.0029348,3.08148148 46.5890725,2.9037037 46.116087,2.9037037 C45.5839783,2.9037037 45.2292391,3.08148148 44.9336232,3.43703704 C44.6380072,3.79259259 44.5197609,4.26666667 44.5197609,4.85925926 C44.5197609,5.45185185 44.6380072,5.92592593 44.9336232,6.28148148 C45.2292391,6.63703704 45.6431014,6.81481481 46.116087,6.81481481 C46.6481957,6.81481481 47.062058,6.63703704 47.3576739,6.28148148 C47.6532899,5.92592593 47.7715362,5.45185185 47.7715362,4.85925926 C47.712413,4.32592593 47.5941667,3.85185185 47.2985507,3.43703704 L47.2985507,3.43703704 Z"></path>
                        <path d="M48.6583841,9.00740741 C48.5992609,8.94814815 48.5992609,8.88888889 48.5992609,8.82962963 C48.5992609,8.77037037 48.5992609,8.71111111 48.6583841,8.65185185 C48.7175072,8.59259259 48.7766304,8.59259259 48.8357536,8.59259259 L49.2496159,8.59259259 C49.3087391,8.59259259 49.4269855,8.53333333 49.4861087,8.47407407 C49.5452319,8.41481481 49.6043551,8.2962963 49.6043551,8.23703704 L49.6043551,7.76296296 L49.6043551,3.02222222 C49.6043551,2.9037037 49.6634783,2.84444444 49.7226014,2.78518519 C49.7817246,2.72592593 49.899971,2.66666667 49.9590942,2.66666667 C50.0773406,2.66666667 50.1364638,2.72592593 50.195587,2.78518519 C50.2547101,2.84444444 50.3138333,2.9037037 50.3138333,3.02222222 L50.3138333,7.58518519 L50.3138333,8.11851852 C50.3138333,8.23703704 50.3138333,8.35555556 50.2547101,8.53333333 C50.195587,8.71111111 50.195587,8.77037037 50.1364638,8.82962963 C50.0773406,8.88888889 49.9590942,8.94814815 49.899971,9.00740741 C49.7817246,9.06666667 49.6634783,9.12592593 49.4861087,9.12592593 C49.3087391,9.12592593 49.1313696,9.18518519 48.8948768,9.18518519 C48.7766304,9.06666667 48.7175072,9.06666667 48.6583841,9.00740741 L48.6583841,9.00740741 Z M49.6043551,1.24444444 C49.4861087,1.18518519 49.4861087,1.06666667 49.4861087,0.888888889 C49.4861087,0.77037037 49.5452319,0.651851852 49.6043551,0.533333333 C49.7226014,0.474074074 49.8408478,0.414814815 49.9590942,0.414814815 C50.0773406,0.414814815 50.195587,0.474074074 50.3138333,0.533333333 C50.4320797,0.592592593 50.4320797,0.711111111 50.4320797,0.888888889 C50.4320797,1.06666667 50.3729565,1.12592593 50.3138333,1.24444444 C50.2547101,1.36296296 50.0773406,1.36296296 49.9590942,1.36296296 C49.8408478,1.36296296 49.7226014,1.3037037 49.6043551,1.24444444 L49.6043551,1.24444444 Z"></path>
                        <path d="M53.8612246,7.40740741 C53.2108696,7.40740741 52.6787609,7.17037037 52.2057754,6.75555556 C51.791913,6.28148148 51.5554203,5.68888889 51.5554203,4.97777778 C51.5554203,4.5037037 51.6145435,4.08888889 51.791913,3.73333333 C51.9692826,3.37777778 52.2057754,3.08148148 52.5605145,2.84444444 C52.9152536,2.60740741 53.3291159,2.48888889 53.8021014,2.48888889 C54.0977174,2.48888889 54.3933333,2.54814815 54.6298261,2.60740741 C54.8663188,2.66666667 55.0436884,2.78518519 55.221058,2.96296296 C55.3984275,3.14074074 55.5166739,3.25925926 55.6349203,3.4962963 C55.7531667,3.67407407 55.8122899,3.91111111 55.871413,4.14814815 C55.9305362,4.38518519 55.9305362,4.62222222 55.9305362,4.85925926 C55.9305362,4.91851852 55.9305362,4.97777778 55.871413,5.03703704 C55.8122899,5.0962963 55.7531667,5.0962963 55.6349203,5.0962963 L52.2648986,5.0962963 C52.2648986,5.68888889 52.4422681,6.16296296 52.7378841,6.45925926 C53.0335,6.75555556 53.4473623,6.93333333 53.9203478,6.93333333 C54.275087,6.93333333 54.5115797,6.87407407 54.7480725,6.75555556 C54.9845652,6.63703704 55.221058,6.51851852 55.4575507,6.28148148 C55.5166739,6.22222222 55.5757971,6.22222222 55.6349203,6.22222222 C55.6940435,6.22222222 55.7531667,6.22222222 55.8122899,6.28148148 C55.871413,6.34074074 55.871413,6.4 55.871413,6.45925926 C55.871413,6.51851852 55.8122899,6.63703704 55.7531667,6.6962963 C55.5166739,6.93333333 55.2801812,7.11111111 54.9845652,7.22962963 C54.6889493,7.28888889 54.275087,7.40740741 53.8612246,7.40740741 L53.8612246,7.40740741 L53.8612246,7.40740741 Z M55.3393043,4.56296296 C55.3393043,4.08888889 55.1619348,3.67407407 54.925442,3.37777778 C54.6889493,3.08148148 54.3342101,2.9037037 53.8612246,2.9037037 C53.3882391,2.9037037 53.0335,3.08148148 52.7378841,3.37777778 C52.4422681,3.67407407 52.3240217,4.08888889 52.2648986,4.56296296 L55.3393043,4.56296296 L55.3393043,4.56296296 Z"></path>
                        <path d="M57.5268623,6.6962963 C57.113,6.22222222 56.9356304,5.62962963 56.9356304,4.91851852 C56.9356304,4.20740741 57.1721232,3.61481481 57.5859855,3.14074074 C57.9998478,2.66666667 58.5910797,2.42962963 59.300558,2.42962963 C59.5370507,2.42962963 59.8326667,2.48888889 60.0691594,2.54814815 C60.3056522,2.60740741 60.4830217,2.72592593 60.6012681,2.84444444 C60.6603913,2.9037037 60.7195145,3.02222222 60.7195145,3.08148148 C60.7195145,3.14074074 60.7195145,3.2 60.6603913,3.2 C60.6012681,3.25925926 60.5421449,3.25925926 60.4830217,3.25925926 C60.4238986,3.25925926 60.3647754,3.25925926 60.3056522,3.2 C60.0100362,2.96296296 59.6552971,2.9037037 59.300558,2.9037037 C58.8275725,2.9037037 58.4137101,3.08148148 58.1180942,3.43703704 C57.8224783,3.79259259 57.6451087,4.26666667 57.6451087,4.91851852 C57.6451087,5.15555556 57.6451087,5.39259259 57.7042319,5.57037037 C57.7633551,5.80740741 57.8224783,5.98518519 57.9407246,6.22222222 C58.058971,6.4 58.2363406,6.57777778 58.4137101,6.6962963 C58.5910797,6.81481481 58.8866957,6.87407407 59.1231884,6.87407407 C59.5961739,6.87407407 59.950913,6.75555556 60.3056522,6.51851852 C60.3647754,6.45925926 60.4238986,6.45925926 60.4830217,6.45925926 C60.5421449,6.45925926 60.6012681,6.45925926 60.6603913,6.51851852 C60.7195145,6.57777778 60.7195145,6.63703704 60.7195145,6.6962963 C60.7195145,6.81481481 60.6603913,6.87407407 60.5421449,6.93333333 C60.1874058,7.22962963 59.7144203,7.34814815 59.1231884,7.34814815 C58.4728333,7.40740741 57.9407246,7.17037037 57.5268623,6.6962963 L57.5268623,6.6962963 Z"></path>
                        <path d="M62.1975942,5.92592593 L62.1975942,3.08148148 L61.5472391,3.08148148 C61.3698696,3.08148148 61.2516232,3.02222222 61.2516232,2.84444444 C61.2516232,2.66666667 61.3698696,2.60740741 61.5472391,2.60740741 L62.1975942,2.60740741 L62.2567174,1.18518519 C62.2567174,1.12592593 62.3158406,1.06666667 62.3749638,1.00740741 C62.434087,0.948148148 62.4932101,0.888888889 62.6114565,0.888888889 C62.6705797,0.888888889 62.7297029,0.888888889 62.7888261,0.948148148 C62.8479493,1.00740741 62.8479493,1.06666667 62.8479493,1.18518519 L62.8479493,2.60740741 L63.7347971,2.60740741 C63.9121667,2.60740741 64.030413,2.66666667 64.030413,2.84444444 C64.030413,3.02222222 63.9121667,3.08148148 63.7347971,3.08148148 L62.8479493,3.08148148 L62.8479493,5.86666667 C62.8479493,6.22222222 62.9070725,6.45925926 63.0253188,6.63703704 C63.1435652,6.81481481 63.3209348,6.87407407 63.4983043,6.87407407 L63.5574275,6.87407407 L63.8530435,6.87407407 L63.8530435,6.87407407 C63.9712899,6.87407407 64.030413,6.87407407 64.0895362,6.93333333 C64.1486594,6.99259259 64.1486594,7.05185185 64.1486594,7.11111111 C64.1486594,7.22962963 64.0895362,7.28888889 63.9712899,7.34814815 C63.8530435,7.40740741 63.7347971,7.40740741 63.4983043,7.40740741 L63.380058,7.40740741 L63.2026884,7.40740741 C62.5523333,7.34814815 62.1975942,6.87407407 62.1975942,5.92592593 L62.1975942,5.92592593 Z"></path>
                        <path d="M68.1690362,7.17037037 C68.109913,7.11111111 68.0507899,7.05185185 68.0507899,6.93333333 L68.0507899,2.84444444 C68.0507899,2.72592593 68.109913,2.66666667 68.1690362,2.60740741 C68.2281594,2.54814815 68.3464058,2.54814815 68.405529,2.54814815 C68.5237754,2.54814815 68.5828986,2.54814815 68.6420217,2.60740741 C68.7011449,2.66666667 68.7602681,2.72592593 68.7602681,2.84444444 L68.7602681,3.37777778 C68.8785145,3.08148148 69.0558841,2.84444444 69.3515,2.66666667 C69.6471159,2.48888889 69.9427319,2.42962963 70.297471,2.42962963 C70.7113333,2.42962963 71.0069493,2.54814815 71.3025652,2.72592593 C71.5981812,2.9037037 71.7755507,3.2 71.8937971,3.61481481 C72.1302899,2.84444444 72.7215217,2.48888889 73.6674928,2.48888889 C73.9039855,2.48888889 74.0813551,2.54814815 74.3178478,2.60740741 C74.4952174,2.66666667 74.672587,2.78518519 74.8499565,2.9037037 C75.0273261,3.02222222 75.1455725,3.25925926 75.2046957,3.4962963 C75.322942,3.73333333 75.322942,4.02962963 75.322942,4.32592593 L75.322942,7.05185185 C75.322942,7.17037037 75.2638188,7.22962963 75.2046957,7.28888889 C75.1455725,7.34814815 75.0273261,7.34814815 74.9682029,7.34814815 C74.9090797,7.34814815 74.7908333,7.34814815 74.7317101,7.28888889 C74.672587,7.22962963 74.6134638,7.17037037 74.6134638,7.05185185 L74.6134638,4.32592593 C74.6134638,3.91111111 74.4952174,3.61481481 74.3178478,3.37777778 C74.1404783,3.14074074 73.8448623,3.02222222 73.4901232,3.02222222 C73.3127536,3.02222222 73.1353841,3.02222222 72.9580145,3.08148148 C72.7806449,3.14074074 72.6032754,3.25925926 72.485029,3.37777778 C72.3667826,3.4962963 72.2485362,3.67407407 72.1302899,3.85185185 C72.0711667,4.02962963 72.0120435,4.32592593 72.0120435,4.56296296 L72.0120435,7.05185185 C72.0120435,7.17037037 71.9529203,7.22962963 71.8937971,7.28888889 C71.8346739,7.34814815 71.7164275,7.34814815 71.6573043,7.34814815 C71.5981812,7.34814815 71.4799348,7.34814815 71.4208116,7.28888889 C71.3616884,7.22962963 71.3025652,7.17037037 71.3025652,7.05185185 L71.3025652,4.5037037 C71.3025652,3.4962963 70.9478261,3.02222222 70.1792246,3.02222222 C69.7062391,3.02222222 69.3515,3.14074074 69.1150072,3.43703704 C68.8785145,3.73333333 68.7011449,4.08888889 68.7011449,4.62222222 L68.7011449,7.05185185 C68.7011449,7.17037037 68.6420217,7.22962963 68.5828986,7.28888889 C68.5237754,7.34814815 68.405529,7.34814815 68.3464058,7.34814815 C68.3464058,7.28888889 68.2281594,7.22962963 68.1690362,7.17037037 L68.1690362,7.17037037 Z"></path>
                        <path d="M76.8601449,7.05185185 C76.564529,6.81481481 76.3871594,6.45925926 76.3871594,6.04444444 C76.3871594,5.86666667 76.3871594,5.68888889 76.4462826,5.51111111 C76.5054058,5.39259259 76.564529,5.21481481 76.6827754,5.15555556 C76.8010217,5.03703704 76.9192681,4.97777778 77.0966377,4.91851852 C77.2740072,4.85925926 77.4513768,4.8 77.6878696,4.74074074 C77.9243623,4.68148148 78.2199783,4.68148148 78.5155942,4.68148148 L79.6389348,4.68148148 L79.6389348,4.08888889 C79.6389348,3.73333333 79.5206884,3.4962963 79.3433188,3.31851852 C79.1659493,3.14074074 78.8703333,3.08148148 78.5155942,3.08148148 C78.2199783,3.08148148 77.9834855,3.14074074 77.7469928,3.2 C77.5105,3.25925926 77.2740072,3.37777778 77.0375145,3.4962963 L76.9192681,3.4962963 C76.8601449,3.4962963 76.8010217,3.4962963 76.7418986,3.43703704 C76.6827754,3.37777778 76.6827754,3.31851852 76.6827754,3.25925926 C76.6827754,3.2 76.7418986,3.14074074 76.8010217,3.08148148 C77.2740072,2.78518519 77.8652391,2.60740741 78.5747174,2.60740741 C79.1659493,2.60740741 79.5798116,2.72592593 79.9345507,3.02222222 C80.2301667,3.25925926 80.4075362,3.67407407 80.4075362,4.20740741 L80.4075362,7.17037037 C80.4075362,7.28888889 80.348413,7.34814815 80.2892899,7.40740741 C80.2301667,7.46666667 80.1119203,7.46666667 80.0527971,7.46666667 C79.9345507,7.46666667 79.8754275,7.46666667 79.8163043,7.40740741 C79.7571812,7.34814815 79.698058,7.28888889 79.698058,7.17037037 L79.698058,6.51851852 C79.402442,7.22962963 78.8703333,7.52592593 78.1608551,7.52592593 C77.5696232,7.40740741 77.1557609,7.28888889 76.8601449,7.05185185 L76.8601449,7.05185185 Z M79.1659493,6.4 C79.4615652,6.04444444 79.5798116,5.62962963 79.5798116,5.15555556 L79.5798116,4.97777778 C78.8703333,4.97777778 78.3382246,4.97777778 77.9834855,5.03703704 C77.6287464,5.0962963 77.3922536,5.21481481 77.2148841,5.33333333 C77.0375145,5.45185185 76.9783913,5.68888889 76.9783913,5.92592593 C76.9783913,6.51851852 77.3331304,6.87407407 78.1017319,6.87407407 C78.5155942,6.93333333 78.8703333,6.75555556 79.1659493,6.4 L79.1659493,6.4 Z"></path>
                        <path d="M82.0629855,8.94814815 C81.9447391,8.88888889 81.8856159,8.82962963 81.8856159,8.71111111 C81.8856159,8.65185185 81.8856159,8.59259259 81.9447391,8.53333333 C82.0038623,8.47407407 82.0629855,8.47407407 82.1221087,8.47407407 L82.1812319,8.47407407 C82.6542174,8.65185185 83.1272029,8.77037037 83.5410652,8.77037037 C84.0731739,8.77037037 84.4870362,8.65185185 84.723529,8.41481481 C84.9600217,8.17777778 85.0782681,7.82222222 85.0782681,7.34814815 L85.0782681,6.28148148 C84.9600217,6.57777778 84.7826522,6.87407407 84.4870362,7.05185185 C84.1914203,7.22962963 83.8958043,7.34814815 83.481942,7.34814815 C83.1272029,7.34814815 82.831587,7.28888889 82.535971,7.17037037 C82.2403551,7.05185185 82.0629855,6.87407407 81.8856159,6.63703704 C81.7082464,6.4 81.59,6.16296296 81.4717536,5.86666667 C81.3535072,5.57037037 81.3535072,5.27407407 81.3535072,4.97777778 C81.3535072,4.68148148 81.3535072,4.44444444 81.4126304,4.20740741 C81.4717536,3.97037037 81.5308768,3.73333333 81.6491232,3.4962963 C81.7673696,3.25925926 81.8856159,3.08148148 82.0629855,2.96296296 C82.2403551,2.78518519 82.4177246,2.66666667 82.6542174,2.60740741 C82.8907101,2.54814815 83.1272029,2.48888889 83.4228188,2.48888889 C83.8366812,2.48888889 84.1914203,2.60740741 84.427913,2.78518519 C84.723529,2.96296296 84.9008986,3.2 85.0782681,3.55555556 L85.0782681,2.9037037 C85.0782681,2.78518519 85.1373913,2.72592593 85.1965145,2.66666667 C85.2556377,2.60740741 85.3147609,2.60740741 85.4330072,2.60740741 C85.5512536,2.60740741 85.6103768,2.60740741 85.6695,2.66666667 C85.7286232,2.72592593 85.7877464,2.78518519 85.7877464,2.9037037 L85.7877464,7.34814815 C85.7877464,8 85.6103768,8.47407407 85.1965145,8.77037037 C84.7826522,9.06666667 84.2505435,9.24444444 83.6001884,9.24444444 C83.0089565,9.24444444 82.535971,9.12592593 82.0629855,8.94814815 L82.0629855,8.94814815 Z M84.723529,6.28148148 C85.0191449,5.92592593 85.1373913,5.45185185 85.1373913,4.91851852 C85.1373913,4.68148148 85.1373913,4.44444444 85.0782681,4.20740741 C85.0191449,3.97037037 84.9600217,3.79259259 84.8417754,3.55555556 C84.723529,3.31851852 84.6052826,3.2 84.3687899,3.08148148 C84.1914203,2.96296296 83.9549275,2.9037037 83.6593116,2.9037037 C83.1863261,2.9037037 82.7724638,3.08148148 82.535971,3.43703704 C82.2994783,3.79259259 82.1221087,4.26666667 82.1221087,4.85925926 C82.1221087,5.45185185 82.2403551,5.92592593 82.535971,6.28148148 C82.831587,6.57777778 83.1863261,6.75555556 83.6593116,6.75555556 C84.0731739,6.81481481 84.427913,6.63703704 84.723529,6.28148148 L84.723529,6.28148148 Z"></path>
                        <path d="M87.3840725,7.17037037 C87.3249493,7.11111111 87.2658261,7.05185185 87.2658261,6.93333333 L87.2658261,2.84444444 C87.2658261,2.72592593 87.3249493,2.66666667 87.3840725,2.60740741 C87.4431957,2.54814815 87.561442,2.54814815 87.6205652,2.54814815 C87.7388116,2.54814815 87.7979348,2.54814815 87.857058,2.60740741 C87.9161812,2.66666667 87.9753043,2.72592593 87.9753043,2.84444444 L87.9753043,3.37777778 C88.0935507,3.08148148 88.2709203,2.84444444 88.5665362,2.66666667 C88.8621522,2.48888889 89.1577681,2.42962963 89.5125072,2.42962963 C90.0446159,2.42962963 90.4584783,2.60740741 90.8132174,2.9037037 C91.1088333,3.2 91.2862029,3.67407407 91.2862029,4.32592593 L91.2862029,6.99259259 C91.2862029,7.11111111 91.2270797,7.17037037 91.1679565,7.22962963 C91.1088333,7.28888889 90.990587,7.28888889 90.9314638,7.28888889 C90.8723406,7.28888889 90.7540942,7.28888889 90.694971,7.22962963 C90.6358478,7.17037037 90.5767246,7.11111111 90.5767246,6.99259259 L90.5767246,4.32592593 C90.5767246,3.43703704 90.1628623,2.96296296 89.3942609,2.96296296 C88.9803986,2.96296296 88.6847826,3.08148148 88.3891667,3.31851852 C88.1526739,3.55555556 87.9753043,3.91111111 87.9753043,4.38518519 L87.9753043,6.99259259 C87.9753043,7.11111111 87.9161812,7.17037037 87.857058,7.22962963 C87.7979348,7.28888889 87.6796884,7.28888889 87.6205652,7.28888889 C87.561442,7.28888889 87.4431957,7.22962963 87.3840725,7.17037037 L87.3840725,7.17037037 Z"></path>
                        <path d="M92.7642826,7.05185185 C92.4686667,6.81481481 92.2912971,6.45925926 92.2912971,6.04444444 C92.2912971,5.86666667 92.2912971,5.68888889 92.3504203,5.51111111 C92.4095435,5.39259259 92.4686667,5.21481481 92.586913,5.15555556 C92.7051594,5.03703704 92.8234058,4.97777778 93.0007754,4.91851852 C93.1781449,4.85925926 93.3555145,4.8 93.5920072,4.74074074 C93.8285,4.68148148 94.1241159,4.68148148 94.4197319,4.68148148 L95.5430725,4.68148148 L95.5430725,4.08888889 C95.5430725,3.73333333 95.4248261,3.4962963 95.2474565,3.31851852 C95.070087,3.14074074 94.774471,3.08148148 94.4197319,3.08148148 C94.1241159,3.08148148 93.8876232,3.14074074 93.6511304,3.2 C93.4146377,3.25925926 93.1781449,3.37777778 92.9416522,3.4962963 L92.8234058,3.4962963 C92.7642826,3.4962963 92.7051594,3.4962963 92.6460362,3.43703704 C92.586913,3.37777778 92.586913,3.31851852 92.586913,3.25925926 C92.586913,3.2 92.6460362,3.14074074 92.7051594,3.08148148 C93.1781449,2.78518519 93.7693768,2.60740741 94.4788551,2.60740741 C95.070087,2.60740741 95.4839493,2.72592593 95.8386884,3.02222222 C96.1343043,3.25925926 96.3116739,3.67407407 96.3116739,4.20740741 L96.3116739,7.17037037 C96.3116739,7.28888889 96.2525507,7.34814815 96.1934275,7.40740741 C96.1343043,7.46666667 96.016058,7.46666667 95.9569348,7.46666667 C95.8386884,7.46666667 95.7795652,7.46666667 95.720442,7.40740741 C95.6613188,7.34814815 95.6021957,7.28888889 95.6021957,7.17037037 L95.6021957,6.51851852 C95.3065797,7.22962963 94.774471,7.52592593 94.0649928,7.52592593 C93.4737609,7.40740741 93.0598986,7.28888889 92.7642826,7.05185185 L92.7642826,7.05185185 Z M95.1292101,6.4 C95.4248261,6.04444444 95.5430725,5.62962963 95.5430725,5.15555556 L95.5430725,4.97777778 C94.8335942,4.97777778 94.3014855,4.97777778 93.9467464,5.03703704 C93.5920072,5.0962963 93.3555145,5.21481481 93.1781449,5.33333333 C93.0598986,5.45185185 92.9416522,5.68888889 92.9416522,5.92592593 C92.9416522,6.51851852 93.2963913,6.87407407 94.0649928,6.87407407 C94.4788551,6.93333333 94.8335942,6.75555556 95.1292101,6.4 L95.1292101,6.4 Z"></path>
                        <path d="M98.0262464,8.94814815 C97.908,8.88888889 97.8488768,8.82962963 97.8488768,8.71111111 C97.8488768,8.65185185 97.8488768,8.59259259 97.908,8.53333333 C97.9671232,8.47407407 98.0262464,8.47407407 98.0853696,8.47407407 L98.1444928,8.47407407 C98.6174783,8.65185185 99.0904638,8.77037037 99.5043261,8.77037037 C100.036435,8.77037037 100.450297,8.65185185 100.68679,8.41481481 C100.923283,8.17777778 101.041529,7.82222222 101.041529,7.34814815 L101.041529,6.28148148 C100.923283,6.57777778 100.745913,6.87407407 100.450297,7.05185185 C100.154681,7.22962963 99.8590652,7.34814815 99.4452029,7.34814815 C99.0904638,7.34814815 98.7948478,7.28888889 98.4992319,7.17037037 C98.2036159,7.05185185 98.0262464,6.87407407 97.8488768,6.63703704 C97.6715072,6.4 97.5532609,6.16296296 97.4350145,5.86666667 C97.3167681,5.57037037 97.3167681,5.27407407 97.3167681,4.97777778 C97.3167681,4.68148148 97.3167681,4.44444444 97.3758913,4.20740741 C97.4350145,3.97037037 97.4941377,3.73333333 97.6123841,3.4962963 C97.7306304,3.25925926 97.8488768,3.08148148 98.0262464,2.96296296 C98.2036159,2.78518519 98.3809855,2.66666667 98.6174783,2.60740741 C98.853971,2.54814815 99.0904638,2.48888889 99.3860797,2.48888889 C99.799942,2.48888889 100.154681,2.60740741 100.391174,2.78518519 C100.68679,2.96296296 100.864159,3.2 101.041529,3.55555556 L101.041529,2.9037037 C101.041529,2.78518519 101.100652,2.72592593 101.159775,2.66666667 C101.218899,2.60740741 101.278022,2.60740741 101.396268,2.60740741 C101.514514,2.60740741 101.573638,2.60740741 101.632761,2.66666667 C101.691884,2.72592593 101.751007,2.78518519 101.751007,2.9037037 L101.751007,7.34814815 C101.751007,8 101.573638,8.47407407 101.159775,8.77037037 C100.745913,9.06666667 100.213804,9.24444444 99.5634493,9.24444444 C98.9722174,9.24444444 98.4401087,9.12592593 98.0262464,8.94814815 L98.0262464,8.94814815 Z M100.627667,6.28148148 C100.923283,5.92592593 101.041529,5.45185185 101.041529,4.91851852 C101.041529,4.68148148 101.041529,4.44444444 100.982406,4.20740741 C100.923283,3.97037037 100.864159,3.79259259 100.745913,3.55555556 C100.627667,3.37777778 100.50942,3.2 100.272928,3.08148148 C100.095558,2.96296296 99.8590652,2.9037037 99.5634493,2.9037037 C99.0904638,2.9037037 98.6766014,3.08148148 98.4401087,3.43703704 C98.2036159,3.79259259 98.0262464,4.26666667 98.0262464,4.85925926 C98.0262464,5.45185185 98.1444928,5.92592593 98.4401087,6.28148148 C98.7357246,6.57777778 99.0904638,6.75555556 99.5634493,6.75555556 C100.036435,6.81481481 100.391174,6.63703704 100.627667,6.28148148 L100.627667,6.28148148 Z"></path>
                        <path d="M105.239275,7.40740741 C104.58892,7.40740741 104.056812,7.17037037 103.583826,6.75555556 C103.169964,6.28148148 102.933471,5.68888889 102.933471,4.97777778 C102.933471,4.5037037 102.992594,4.08888889 103.169964,3.73333333 C103.347333,3.37777778 103.583826,3.08148148 103.938565,2.84444444 C104.293304,2.60740741 104.707167,2.48888889 105.180152,2.48888889 C105.475768,2.48888889 105.771384,2.54814815 106.007877,2.60740741 C106.24437,2.66666667 106.421739,2.78518519 106.599109,2.96296296 C106.776478,3.14074074 106.894725,3.25925926 107.012971,3.4962963 C107.131217,3.67407407 107.190341,3.91111111 107.249464,4.14814815 C107.308587,4.38518519 107.308587,4.62222222 107.308587,4.85925926 C107.308587,4.91851852 107.308587,4.97777778 107.249464,5.03703704 C107.190341,5.0962963 107.131217,5.0962963 107.012971,5.0962963 L103.642949,5.0962963 C103.642949,5.68888889 103.820319,6.16296296 104.115935,6.45925926 C104.411551,6.75555556 104.825413,6.93333333 105.298399,6.93333333 C105.653138,6.93333333 105.88963,6.87407407 106.126123,6.75555556 C106.362616,6.63703704 106.599109,6.51851852 106.835601,6.28148148 C106.894725,6.22222222 106.953848,6.22222222 107.012971,6.22222222 C107.072094,6.22222222 107.131217,6.22222222 107.190341,6.28148148 C107.249464,6.34074074 107.249464,6.4 107.249464,6.45925926 C107.249464,6.51851852 107.190341,6.63703704 107.131217,6.6962963 C106.894725,6.93333333 106.658232,7.11111111 106.362616,7.22962963 C106.067,7.34814815 105.653138,7.40740741 105.239275,7.40740741 L105.239275,7.40740741 L105.239275,7.40740741 Z M106.717355,4.56296296 C106.717355,4.08888889 106.539986,3.67407407 106.303493,3.37777778 C106.067,3.08148148 105.712261,2.9037037 105.239275,2.9037037 C104.76629,2.9037037 104.411551,3.08148148 104.115935,3.37777778 C103.820319,3.67407407 103.702072,4.08888889 103.642949,4.56296296 L106.717355,4.56296296 L106.717355,4.56296296 Z"></path>
                        <path d="M108.786667,7.17037037 C108.727543,7.11111111 108.66842,7.05185185 108.66842,6.93333333 L108.66842,2.84444444 C108.66842,2.72592593 108.727543,2.66666667 108.786667,2.60740741 C108.84579,2.54814815 108.964036,2.54814815 109.023159,2.54814815 C109.141406,2.54814815 109.200529,2.54814815 109.259652,2.60740741 C109.318775,2.66666667 109.377899,2.72592593 109.377899,2.84444444 L109.377899,3.37777778 C109.496145,3.08148148 109.673514,2.84444444 109.96913,2.66666667 C110.264746,2.48888889 110.560362,2.42962963 110.915101,2.42962963 C111.328964,2.42962963 111.62458,2.54814815 111.920196,2.72592593 C112.215812,2.9037037 112.393181,3.2 112.511428,3.61481481 C112.74792,2.84444444 113.339152,2.48888889 114.285123,2.48888889 C114.521616,2.48888889 114.698986,2.54814815 114.935478,2.60740741 C115.112848,2.66666667 115.290217,2.78518519 115.467587,2.9037037 C115.644957,3.02222222 115.763203,3.25925926 115.822326,3.4962963 C115.940572,3.73333333 115.940572,4.02962963 115.940572,4.32592593 L115.940572,7.05185185 C115.940572,7.17037037 115.881449,7.22962963 115.822326,7.28888889 C115.763203,7.34814815 115.644957,7.34814815 115.585833,7.34814815 C115.52671,7.34814815 115.408464,7.34814815 115.349341,7.28888889 C115.290217,7.22962963 115.231094,7.17037037 115.231094,7.05185185 L115.231094,4.32592593 C115.231094,3.91111111 115.112848,3.61481481 114.935478,3.37777778 C114.758109,3.14074074 114.462493,3.02222222 114.107754,3.02222222 C113.930384,3.02222222 113.753014,3.02222222 113.575645,3.08148148 C113.398275,3.14074074 113.220906,3.25925926 113.102659,3.37777778 C112.984413,3.4962963 112.866167,3.67407407 112.74792,3.85185185 C112.688797,4.02962963 112.629674,4.32592593 112.629674,4.56296296 L112.629674,7.05185185 C112.629674,7.17037037 112.570551,7.22962963 112.511428,7.28888889 C112.452304,7.34814815 112.334058,7.34814815 112.274935,7.34814815 C112.215812,7.34814815 112.097565,7.34814815 112.038442,7.28888889 C111.979319,7.22962963 111.920196,7.17037037 111.920196,7.05185185 L111.920196,4.5037037 C111.920196,3.4962963 111.565457,3.02222222 110.796855,3.02222222 C110.32387,3.02222222 109.96913,3.14074074 109.732638,3.43703704 C109.496145,3.73333333 109.318775,4.08888889 109.318775,4.62222222 L109.318775,7.05185185 C109.318775,7.17037037 109.259652,7.22962963 109.200529,7.28888889 C109.141406,7.34814815 109.023159,7.34814815 108.964036,7.34814815 C108.964036,7.28888889 108.84579,7.22962963 108.786667,7.17037037 L108.786667,7.17037037 Z"></path>
                        <path d="M119.428841,7.40740741 C118.778486,7.40740741 118.246377,7.17037037 117.773391,6.75555556 C117.359529,6.28148148 117.123036,5.68888889 117.123036,4.97777778 C117.123036,4.5037037 117.182159,4.08888889 117.359529,3.73333333 C117.536899,3.37777778 117.773391,3.08148148 118.12813,2.84444444 C118.48287,2.60740741 118.896732,2.48888889 119.369717,2.48888889 C119.665333,2.48888889 119.960949,2.54814815 120.197442,2.60740741 C120.433935,2.66666667 120.611304,2.78518519 120.788674,2.96296296 C120.966043,3.08148148 121.08429,3.25925926 121.202536,3.4962963 C121.320783,3.67407407 121.379906,3.91111111 121.439029,4.14814815 C121.498152,4.38518519 121.498152,4.62222222 121.498152,4.85925926 C121.498152,4.91851852 121.498152,4.97777778 121.439029,5.03703704 C121.379906,5.0962963 121.320783,5.0962963 121.202536,5.0962963 L117.832514,5.0962963 C117.832514,5.68888889 118.009884,6.16296296 118.3055,6.45925926 C118.601116,6.75555556 119.014978,6.93333333 119.487964,6.93333333 C119.842703,6.93333333 120.079196,6.87407407 120.315688,6.75555556 C120.552181,6.63703704 120.788674,6.51851852 121.025167,6.28148148 C121.08429,6.22222222 121.143413,6.22222222 121.202536,6.22222222 C121.261659,6.22222222 121.320783,6.22222222 121.379906,6.28148148 C121.439029,6.34074074 121.439029,6.4 121.439029,6.45925926 C121.439029,6.51851852 121.379906,6.63703704 121.320783,6.6962963 C121.08429,6.93333333 120.847797,7.11111111 120.552181,7.22962963 C120.256565,7.28888889 119.842703,7.40740741 119.428841,7.40740741 L119.428841,7.40740741 L119.428841,7.40740741 Z M120.90692,4.56296296 C120.90692,4.08888889 120.729551,3.67407407 120.493058,3.37777778 C120.256565,3.08148148 119.901826,2.9037037 119.428841,2.9037037 C118.955855,2.9037037 118.601116,3.08148148 118.3055,3.37777778 C118.009884,3.67407407 117.891638,4.08888889 117.832514,4.56296296 L120.90692,4.56296296 L120.90692,4.56296296 Z"></path>
                        <path d="M122.976232,7.17037037 C122.917109,7.11111111 122.857986,7.05185185 122.857986,6.93333333 L122.857986,2.84444444 C122.857986,2.72592593 122.917109,2.66666667 122.976232,2.60740741 C123.035355,2.54814815 123.153601,2.54814815 123.212725,2.54814815 C123.330971,2.54814815 123.390094,2.54814815 123.449217,2.60740741 C123.508341,2.66666667 123.567464,2.72592593 123.567464,2.84444444 L123.567464,3.37777778 C123.68571,3.08148148 123.86308,2.84444444 124.158696,2.66666667 C124.454312,2.48888889 124.749928,2.42962963 125.104667,2.42962963 C125.636775,2.42962963 126.050638,2.60740741 126.405377,2.9037037 C126.700993,3.2 126.878362,3.67407407 126.878362,4.32592593 L126.878362,6.99259259 C126.878362,7.11111111 126.819239,7.17037037 126.760116,7.22962963 C126.700993,7.28888889 126.582746,7.28888889 126.523623,7.28888889 C126.4645,7.28888889 126.346254,7.28888889 126.28713,7.22962963 C126.228007,7.17037037 126.168884,7.11111111 126.168884,6.99259259 L126.168884,4.32592593 C126.168884,3.43703704 125.755022,2.96296296 124.98642,2.96296296 C124.572558,2.96296296 124.276942,3.08148148 123.981326,3.31851852 C123.744833,3.55555556 123.567464,3.91111111 123.567464,4.38518519 L123.567464,6.99259259 C123.567464,7.11111111 123.508341,7.17037037 123.449217,7.22962963 C123.390094,7.28888889 123.271848,7.28888889 123.212725,7.28888889 C123.153601,7.28888889 123.035355,7.22962963 122.976232,7.17037037 L122.976232,7.17037037 Z"></path>
                        <path d="M128.652058,5.92592593 L128.652058,3.08148148 L128.001703,3.08148148 C127.824333,3.08148148 127.706087,3.02222222 127.706087,2.84444444 C127.706087,2.66666667 127.824333,2.60740741 128.001703,2.60740741 L128.652058,2.60740741 L128.711181,1.18518519 C128.711181,1.12592593 128.770304,1.06666667 128.829428,1.00740741 C128.888551,0.948148148 128.947674,0.888888889 129.06592,0.888888889 C129.125043,0.888888889 129.184167,0.888888889 129.24329,0.948148148 C129.302413,1.00740741 129.302413,1.06666667 129.302413,1.18518519 L129.302413,2.60740741 L130.189261,2.60740741 C130.36663,2.60740741 130.484877,2.66666667 130.484877,2.84444444 C130.484877,3.02222222 130.36663,3.08148148 130.189261,3.08148148 L129.302413,3.08148148 L129.302413,5.86666667 C129.302413,6.22222222 129.361536,6.45925926 129.479783,6.63703704 C129.598029,6.81481481 129.775399,6.87407407 129.952768,6.87407407 L130.011891,6.87407407 L130.307507,6.87407407 L130.307507,6.87407407 C130.425754,6.87407407 130.484877,6.87407407 130.544,6.93333333 C130.603123,6.99259259 130.603123,7.05185185 130.603123,7.11111111 C130.603123,7.22962963 130.544,7.28888889 130.425754,7.34814815 C130.307507,7.40740741 130.189261,7.40740741 129.952768,7.40740741 L129.834522,7.40740741 L129.657152,7.40740741 C129.06592,7.34814815 128.652058,6.87407407 128.652058,5.92592593 L128.652058,5.92592593 Z"></path>
                    </g>
                    <g transform="translate(32.517754, 2.370370)" id="Shape" fill="#000000">
                        <path d="M0.768601449,12.7407407 C0.650355072,12.6222222 0.532108696,12.4444444 0.532108696,12.2666667 C0.532108696,11.9703704 0.650355072,11.6740741 0.827724638,11.3777778 C1.06421739,11.0814815 1.30071014,10.962963 1.5372029,10.962963 C1.65544928,10.962963 1.77369565,11.0222222 1.83281884,11.0814815 C2.95615942,11.7925926 4.19774638,12.0888889 5.43933333,12.0888889 C6.26705797,12.0888889 6.85828986,11.9703704 7.39039855,11.6740741 C7.86338406,11.3777778 8.159,10.962963 8.159,10.3703704 C8.159,9.8962963 8.04075362,9.54074074 7.74513768,9.3037037 C7.44952174,9.06666667 7.03565942,8.82962963 6.50355072,8.65185185 L3.5473913,7.58518519 C2.48317391,7.22962963 1.77369565,6.75555556 1.30071014,6.22222222 C0.827724638,5.68888889 0.591231884,4.97777778 0.591231884,4.08888889 C0.591231884,2.9037037 1.06421739,2.01481481 2.01018841,1.3037037 C2.95615942,0.592592593 4.19774638,0.296296296 5.67582609,0.296296296 C6.56267391,0.296296296 7.39039855,0.414814815 8.21812319,0.651851852 C9.04584783,0.888888889 9.6962029,1.18518519 10.1100652,1.6 C10.2874348,1.77777778 10.4056812,2.01481481 10.4056812,2.25185185 C10.4056812,2.54814815 10.2874348,2.78518519 10.1100652,3.02222222 C9.93269565,3.25925926 9.6962029,3.37777778 9.45971014,3.37777778 C9.34146377,3.37777778 9.1640942,3.31851852 9.04584783,3.25925926 C8.04075362,2.72592593 6.97653623,2.42962963 5.85319565,2.42962963 C5.49845652,2.42962963 5.14371739,2.42962963 4.84810145,2.48888889 C4.55248551,2.54814815 4.25686957,2.60740741 4.02037681,2.72592593 C3.78388406,2.84444444 3.5473913,3.02222222 3.42914493,3.2 C3.31089855,3.43703704 3.19265217,3.67407407 3.19265217,3.97037037 C3.19265217,4.32592593 3.31089855,4.68148148 3.5473913,4.91851852 C3.78388406,5.15555556 4.13862319,5.33333333 4.55248551,5.51111111 C4.6116087,5.51111111 5.02547101,5.62962963 5.91231884,5.92592593 C6.79916667,6.16296296 7.21302899,6.28148148 7.27215217,6.34074074 C7.86338406,6.51851852 8.39549275,6.75555556 8.80935507,6.93333333 C9.22321739,7.11111111 9.57795652,7.40740741 9.93269565,7.7037037 C10.2874348,8 10.5239275,8.35555556 10.6421739,8.77037037 C10.8195435,9.18518519 10.8786667,9.65925926 10.8786667,10.1925926 C10.8786667,11.437037 10.4056812,12.3851852 9.45971014,13.0962963 C8.51373913,13.8074074 7.21302899,14.162963 5.6167029,14.162963 C3.5473913,14.1037037 1.95106522,13.6296296 0.768601449,12.7407407 L0.768601449,12.7407407 Z"></path>
                        <path d="M13.1253478,13.5111111 C12.8888551,13.2740741 12.8297319,12.9777778 12.8297319,12.562963 L12.8297319,5.92592593 C12.8297319,5.51111111 12.9479783,5.21481481 13.1253478,5.03703704 C13.3618406,4.8 13.5983333,4.74074074 13.9530725,4.74074074 C14.2486884,4.74074074 14.5443043,4.85925926 14.7807971,5.03703704 C15.0172899,5.21481481 15.1355362,5.51111111 15.1355362,5.86666667 L15.1355362,6.34074074 C15.7267681,5.21481481 16.6727391,4.68148148 18.0916957,4.68148148 C18.8602971,4.68148148 19.5106522,4.85925926 19.9836377,5.21481481 C20.5157464,5.57037037 20.8704855,6.04444444 21.0478551,6.6962963 C21.639087,5.33333333 22.7033043,4.68148148 24.2405072,4.68148148 C25.2456014,4.68148148 26.0733261,4.97777778 26.664558,5.57037037 C27.2557899,6.16296296 27.5514058,7.05185185 27.5514058,8.17777778 L27.5514058,12.7407407 C27.5514058,13.1555556 27.4331594,13.4518519 27.2557899,13.6888889 C27.0192971,13.9259259 26.7828043,14.0444444 26.4280652,14.0444444 C26.0733261,14.0444444 25.8368333,13.9259259 25.6003406,13.6888889 C25.3638478,13.4518519 25.3047246,13.1555556 25.3047246,12.7407407 L25.3047246,8.17777778 C25.3047246,7.52592593 25.1273551,7.05185185 24.8317391,6.75555556 C24.5361232,6.4 24.1222609,6.28148148 23.5901522,6.28148148 C22.9397971,6.28148148 22.4076884,6.51851852 21.9938261,6.99259259 C21.5799638,7.46666667 21.343471,8.11851852 21.343471,8.94814815 L21.343471,12.7407407 C21.343471,13.1555556 21.2252246,13.4518519 21.0478551,13.6888889 C20.8113623,13.9259259 20.5748696,14.0444444 20.2201304,14.0444444 C19.9245145,14.0444444 19.6288986,13.9259259 19.3924058,13.6888889 C19.155913,13.4518519 19.0376667,13.1555556 19.0376667,12.7407407 L19.0376667,8.23703704 C19.0376667,7.58518519 18.8602971,7.05185185 18.5646812,6.75555556 C18.2690652,6.4 17.8552029,6.22222222 17.3230942,6.22222222 C16.6727391,6.22222222 16.1406304,6.45925926 15.7267681,6.87407407 C15.3129058,7.28888889 15.1355362,7.94074074 15.1355362,8.65185185 L15.1355362,12.6814815 C15.1355362,13.0962963 15.0172899,13.3925926 14.7807971,13.6296296 C14.5443043,13.8666667 14.2486884,13.9851852 13.9530725,13.9851852 C13.5983333,13.8666667 13.3027174,13.7481481 13.1253478,13.5111111 L13.1253478,13.5111111 Z"></path>
                        <path d="M30.2710725,13.2740741 C29.6798406,12.8 29.3842246,12.1481481 29.3842246,11.3185185 C29.3842246,10.962963 29.4433478,10.6074074 29.502471,10.3703704 C29.5615942,10.0740741 29.6798406,9.83703704 29.798087,9.65925926 C29.9163333,9.48148148 30.1528261,9.3037037 30.3893188,9.12592593 C30.6258116,9.00740741 30.9214275,8.88888889 31.1579203,8.77037037 C31.4535362,8.71111111 31.8082754,8.59259259 32.2221377,8.59259259 C32.636,8.53333333 33.1089855,8.53333333 33.5228478,8.47407407 L35.1191739,8.47407407 L35.1191739,7.76296296 C35.1191739,7.17037037 35.0009275,6.75555556 34.7053116,6.51851852 C34.4096957,6.28148148 34.0549565,6.1037037 33.4637246,6.1037037 L33.1089855,6.1037037 C32.9907391,6.1037037 32.8724928,6.1037037 32.7542464,6.16296296 C32.636,6.16296296 32.5177536,6.22222222 32.4586304,6.22222222 C32.3403841,6.22222222 32.2812609,6.28148148 32.1038913,6.28148148 C31.9265217,6.28148148 31.8673986,6.34074074 31.8082754,6.34074074 C31.7491522,6.34074074 31.6309058,6.4 31.5126594,6.45925926 C31.394413,6.51851852 31.2761667,6.51851852 31.2761667,6.51851852 C31.2170435,6.51851852 31.1579203,6.57777778 31.0396739,6.63703704 C30.9214275,6.6962963 30.8623043,6.6962963 30.8623043,6.6962963 C30.8031812,6.75555556 30.6849348,6.75555556 30.6258116,6.75555556 C30.3893188,6.75555556 30.2119493,6.63703704 30.0937029,6.45925926 C29.9163333,6.28148148 29.8572101,6.1037037 29.8572101,5.86666667 C29.8572101,5.57037037 29.9754565,5.33333333 30.2710725,5.21481481 C31.2761667,4.74074074 32.3995072,4.5037037 33.6410942,4.5037037 C34.1732029,4.5037037 34.7053116,4.56296296 35.1782971,4.68148148 C35.6512826,4.8 36.0060217,5.03703704 36.3607609,5.27407407 C36.7155,5.57037037 36.9519928,5.92592593 37.1293623,6.34074074 C37.3067319,6.81481481 37.4249783,7.34814815 37.4249783,7.94074074 L37.4249783,12.6222222 C37.4249783,12.9777778 37.3067319,13.2740741 37.1293623,13.4518519 C36.8928696,13.6296296 36.6563768,13.7481481 36.3607609,13.7481481 C36.0651449,13.7481481 35.8286522,13.6296296 35.5921594,13.4518519 C35.3556667,13.2740741 35.2965435,12.9777778 35.2965435,12.6222222 L35.2965435,12.3259259 C35.1191739,12.8 34.7644348,13.1555556 34.3505725,13.4518519 C33.9367101,13.7481481 33.3454783,13.8666667 32.636,13.8666667 C31.6309058,13.9851852 30.8623043,13.7481481 30.2710725,13.2740741 L30.2710725,13.2740741 Z M34.4096957,11.7925926 C34.8826812,11.3185185 35.1191739,10.7259259 35.1191739,9.95555556 L35.1191739,9.71851852 L33.6410942,9.71851852 C33.2863551,9.71851852 32.9316159,9.77777778 32.636,9.83703704 C32.3403841,9.8962963 32.1038913,9.95555556 31.9265217,10.0740741 C31.7491522,10.1925926 31.6309058,10.3111111 31.5717826,10.4888889 C31.5126594,10.6666667 31.4535362,10.9037037 31.4535362,11.2 C31.4535362,11.6148148 31.5717826,11.9703704 31.8082754,12.1481481 C32.0447681,12.3851852 32.3995072,12.5037037 32.8133696,12.5037037 C33.4046014,12.5037037 33.9367101,12.2666667 34.4096957,11.7925926 L34.4096957,11.7925926 Z"></path>
                        <path d="M40.1446449,13.5703704 C39.9081522,13.3333333 39.7899058,13.037037 39.7899058,12.6222222 L39.7899058,5.74814815 C39.7899058,5.39259259 39.9081522,5.15555556 40.1446449,4.91851852 C40.3811377,4.74074074 40.6176304,4.62222222 40.9723696,4.62222222 C41.2679855,4.62222222 41.5636014,4.74074074 41.8000942,4.91851852 C42.036587,5.0962963 42.1548333,5.33333333 42.1548333,5.68888889 L42.1548333,6.63703704 C42.3322029,6.1037037 42.6278188,5.62962963 43.1008043,5.21481481 C43.5737899,4.8 44.1058986,4.62222222 44.6380072,4.62222222 C44.9336232,4.62222222 45.1109928,4.74074074 45.2883623,4.91851852 C45.4657319,5.0962963 45.5248551,5.33333333 45.5248551,5.62962963 C45.5248551,5.86666667 45.4657319,6.1037037 45.2883623,6.28148148 C45.1701159,6.45925926 44.9336232,6.57777778 44.6971304,6.57777778 C44.3423913,6.57777778 44.0467754,6.57777778 43.7511594,6.63703704 C43.4555435,6.6962963 43.2190507,6.81481481 42.9234348,6.93333333 C42.686942,7.05185185 42.4504493,7.28888889 42.3322029,7.58518519 C42.2139565,7.88148148 42.0957101,8.23703704 42.0957101,8.71111111 L42.0957101,12.562963 C42.0957101,12.9777778 41.9774638,13.2740741 41.8000942,13.4518519 C41.5636014,13.6888889 41.3271087,13.7481481 40.9723696,13.7481481 C40.6176304,13.8666667 40.3811377,13.7481481 40.1446449,13.5703704 L40.1446449,13.5703704 Z"></path>
                        <path d="M48.3036449,13.2148148 C47.8306594,12.6814815 47.5941667,11.9703704 47.5941667,11.0222222 L47.5941667,6.28148148 L46.7073188,6.28148148 C46.4708261,6.28148148 46.2343333,6.22222222 46.116087,6.04444444 C45.9978406,5.92592593 45.8795942,5.68888889 45.8795942,5.45185185 C45.8795942,5.21481481 45.9387174,5.03703704 46.0569638,4.91851852 C46.1752101,4.8 46.4117029,4.74074074 46.6481957,4.74074074 L47.5941667,4.74074074 L47.8897826,2.48888889 C47.9489058,2.13333333 48.0671522,1.8962963 48.2445217,1.65925926 C48.4218913,1.42222222 48.7175072,1.36296296 49.0131232,1.36296296 C49.3087391,1.36296296 49.4861087,1.42222222 49.6634783,1.6 C49.8408478,1.77777778 49.899971,2.01481481 49.899971,2.37037037 L49.899971,4.74074074 L51.3780507,4.74074074 C51.6145435,4.74074074 51.8510362,4.8 51.9692826,4.97777778 C52.087529,5.0962963 52.1466522,5.33333333 52.1466522,5.57037037 C52.1466522,5.80740741 52.087529,5.98518519 51.9692826,6.1037037 C51.8510362,6.22222222 51.6145435,6.28148148 51.3780507,6.28148148 L49.899971,6.28148148 L49.899971,10.4296296 C49.899971,11.0222222 49.9590942,11.437037 50.1364638,11.7333333 C50.2547101,12.0296296 50.5503261,12.1481481 50.9050652,12.1481481 L51.0233116,12.1481481 L51.6736667,12.0888889 L51.7327899,12.0888889 C51.9692826,12.0888889 52.2057754,12.1481481 52.3240217,12.3259259 C52.4422681,12.5037037 52.5605145,12.6814815 52.5605145,12.9185185 C52.5605145,13.037037 52.5605145,13.2148148 52.5013913,13.2740741 C52.4422681,13.3925926 52.3831449,13.4518519 52.2648986,13.5111111 C52.1466522,13.5703704 52.0284058,13.6296296 51.9692826,13.6888889 C51.8510362,13.7481481 51.7327899,13.7481481 51.4962971,13.7481481 C51.3189275,13.7481481 51.141558,13.7481481 51.0233116,13.8074074 L50.4912029,13.8074074 L50.2547101,13.8074074 C49.4269855,13.9259259 48.7766304,13.6888889 48.3036449,13.2148148 L48.3036449,13.2148148 Z"></path>
                        <path d="M54.7480725,13.6888889 C54.6298261,13.5703704 54.5115797,13.3925926 54.5115797,13.1555556 L54.5115797,1.54074074 C54.5115797,1.36296296 54.5707029,1.18518519 54.7480725,1.00740741 C54.8663188,0.888888889 55.0436884,0.77037037 55.2801812,0.77037037 L59.1823116,0.77037037 C59.5961739,0.77037037 59.950913,0.77037037 60.3056522,0.82962963 C60.6603913,0.888888889 61.0151304,0.948148148 61.3698696,1.00740741 C61.7246087,1.06666667 62.0793478,1.18518519 62.3158406,1.36296296 C62.6114565,1.54074074 62.8479493,1.71851852 63.084442,1.95555556 C63.3209348,2.19259259 63.4983043,2.48888889 63.6165507,2.84444444 C63.7347971,3.2 63.7939203,3.61481481 63.7939203,4.02962963 C63.7939203,4.8 63.5574275,5.39259259 63.1435652,5.92592593 C62.7297029,6.45925926 62.0793478,6.81481481 61.1925,6.99259259 L61.1925,7.11111111 C61.9019783,7.22962963 62.434087,7.58518519 62.7888261,8 C63.1435652,8.47407407 63.380058,9.12592593 63.4983043,9.8962963 L63.8530435,13.037037 L63.8530435,13.0962963 L63.8530435,13.1555556 C63.8530435,13.3925926 63.7939203,13.5111111 63.6756739,13.6888889 C63.5574275,13.8074074 63.380058,13.8666667 63.2026884,13.8666667 C63.0253188,13.8666667 62.8479493,13.8074074 62.6705797,13.6888889 C62.4932101,13.5703704 62.434087,13.3925926 62.3749638,13.1555556 L62.0793478,10.4888889 C62.0202246,10.0740741 61.9611014,9.71851852 61.9611014,9.42222222 C61.9019783,9.12592593 61.8428551,8.88888889 61.7246087,8.65185185 C61.6063623,8.41481481 61.5472391,8.23703704 61.4289928,8.11851852 C61.3107464,8 61.1925,7.88148148 60.9560072,7.82222222 C60.7786377,7.76296296 60.5421449,7.7037037 60.3056522,7.64444444 C60.0691594,7.64444444 59.7735435,7.58518519 59.4188043,7.58518519 L56.0487826,7.58518519 L56.0487826,13.037037 C56.0487826,13.2740741 55.9896594,13.4518519 55.8122899,13.5703704 C55.6349203,13.6888889 55.5166739,13.7481481 55.2801812,13.7481481 C55.0436884,13.8666667 54.8663188,13.8074074 54.7480725,13.6888889 L54.7480725,13.6888889 Z M59.0640652,6.57777778 C59.5370507,6.57777778 59.8917899,6.51851852 60.246529,6.45925926 C60.6012681,6.4 60.9560072,6.28148148 61.2516232,6.1037037 C61.5472391,5.92592593 61.7837319,5.68888889 61.9611014,5.33333333 C62.138471,4.97777778 62.1975942,4.62222222 62.1975942,4.14814815 C62.1975942,3.79259259 62.138471,3.43703704 62.0202246,3.2 C61.9019783,2.9037037 61.7246087,2.72592593 61.5472391,2.54814815 C61.3698696,2.37037037 61.1333768,2.25185185 60.8377609,2.19259259 C60.5421449,2.13333333 60.246529,2.07407407 60.0100362,2.01481481 C59.7735435,2.01481481 59.4779275,1.95555556 59.1823116,1.95555556 L55.9896594,1.95555556 L55.9896594,6.51851852 L59.0640652,6.51851852 L59.0640652,6.57777778 Z"></path>
                        <path d="M70.3565942,14.0444444 C69.1150072,14.0444444 68.0507899,13.6296296 67.2230652,12.7407407 C66.3953406,11.9111111 65.9814783,10.7259259 65.9814783,9.3037037 C65.9814783,8.41481481 66.1588478,7.64444444 66.513587,6.93333333 C66.8683261,6.22222222 67.3413116,5.62962963 68.0507899,5.21481481 C68.7011449,4.74074074 69.5288696,4.56296296 70.4157174,4.56296296 C71.0069493,4.56296296 71.539058,4.62222222 71.9529203,4.8 C72.4259058,4.97777778 72.7806449,5.15555556 73.0762609,5.45185185 C73.3718768,5.74814815 73.6083696,6.04444444 73.8448623,6.45925926 C74.0813551,6.87407407 74.1996014,7.22962963 74.3178478,7.7037037 C74.4360942,8.11851852 74.4360942,8.59259259 74.4952174,9.06666667 C74.4952174,9.18518519 74.4360942,9.3037037 74.3178478,9.42222222 C74.1996014,9.54074074 74.0813551,9.54074074 73.9039855,9.54074074 L67.4004348,9.54074074 C67.4004348,10.6666667 67.6960507,11.5555556 68.2872826,12.1481481 C68.8785145,12.7407407 69.6471159,13.0962963 70.5339638,13.0962963 C71.1843188,13.0962963 71.7164275,12.9777778 72.1302899,12.8 C72.6032754,12.562963 73.0171377,12.3259259 73.4901232,11.9111111 C73.6083696,11.7925926 73.7266159,11.7925926 73.8448623,11.7925926 C73.9631087,11.7925926 74.0813551,11.8518519 74.1404783,11.9111111 C74.1996014,11.9703704 74.2587246,12.0888889 74.2587246,12.2074074 C74.2587246,12.3851852 74.1996014,12.5037037 74.0222319,12.6814815 C73.6083696,13.0962963 73.0762609,13.4518519 72.5441522,13.6888889 C71.9529203,13.9259259 71.243442,14.0444444 70.3565942,14.0444444 L70.3565942,14.0444444 L70.3565942,14.0444444 Z M73.2536304,8.71111111 C73.1945072,7.76296296 72.9580145,6.99259259 72.485029,6.4 C72.0120435,5.80740741 71.3616884,5.51111111 70.4748406,5.51111111 C69.5879928,5.51111111 68.8193913,5.80740741 68.2872826,6.45925926 C67.7551739,7.05185185 67.459558,7.82222222 67.4004348,8.71111111 L73.2536304,8.71111111 L73.2536304,8.71111111 Z"></path>
                        <path d="M78.5155942,13.6888889 C77.9834855,13.4518519 77.5696232,13.0962963 77.2740072,12.6222222 C76.9783913,12.1481481 76.7418986,11.6740741 76.564529,11.0814815 C76.3871594,10.4888889 76.3280362,9.8962963 76.3280362,9.24444444 C76.3280362,8.59259259 76.3871594,8 76.564529,7.46666667 C76.7418986,6.93333333 76.9783913,6.4 77.3331304,5.98518519 C77.6878696,5.57037037 78.1017319,5.21481481 78.6338406,4.97777778 C79.1659493,4.74074074 79.7571812,4.56296296 80.4075362,4.56296296 C81.1170145,4.56296296 81.7082464,4.74074074 82.2403551,5.03703704 C82.7724638,5.39259259 83.1863261,5.80740741 83.4228188,6.45925926 L83.4228188,1.42222222 C83.4228188,1.24444444 83.481942,1.06666667 83.6001884,0.948148148 C83.7184348,0.82962963 83.8958043,0.77037037 84.0731739,0.77037037 C84.2505435,0.77037037 84.427913,0.82962963 84.5461594,0.948148148 C84.6644058,1.06666667 84.723529,1.18518519 84.723529,1.42222222 L84.723529,13.2148148 C84.723529,13.3925926 84.6644058,13.5703704 84.5461594,13.6296296 C84.427913,13.7481481 84.2505435,13.8074074 84.0731739,13.8074074 C83.8366812,13.8074074 83.6593116,13.7481481 83.5410652,13.6296296 C83.4228188,13.5111111 83.3636957,13.3925926 83.3636957,13.2148148 L83.3636957,12.1481481 C83.0680797,12.8 82.6542174,13.2740741 82.0629855,13.5703704 C81.4717536,13.8666667 80.8213986,14.0444444 80.1119203,14.0444444 C79.5798116,14.0444444 78.9885797,13.9259259 78.5155942,13.6888889 L78.5155942,13.6888889 Z M81.8264928,12.8 C82.2403551,12.6222222 82.535971,12.3259259 82.7724638,11.9111111 C83.0089565,11.5555556 83.1863261,11.1407407 83.2454493,10.6666667 C83.3636957,10.2518519 83.4228188,9.71851852 83.4228188,9.18518519 C83.4228188,8.71111111 83.3636957,8.23703704 83.2454493,7.82222222 C83.1272029,7.40740741 82.9498333,6.99259259 82.7133406,6.63703704 C82.4768478,6.28148148 82.1812319,5.98518519 81.7673696,5.74814815 C81.3535072,5.51111111 80.9396449,5.45185185 80.4075362,5.45185185 C79.9936739,5.45185185 79.6389348,5.51111111 79.2841957,5.68888889 C78.9294565,5.86666667 78.6929638,6.04444444 78.456471,6.28148148 C78.2199783,6.51851852 78.0426087,6.81481481 77.9243623,7.17037037 C77.8061159,7.52592593 77.6878696,7.88148148 77.6287464,8.17777778 C77.5696232,8.53333333 77.5105,8.88888889 77.5105,9.24444444 C77.5105,9.71851852 77.5696232,10.1333333 77.6287464,10.5481481 C77.7469928,10.962963 77.8652391,11.3777778 78.0426087,11.7333333 C78.2199783,12.0888889 78.5155942,12.4444444 78.8703333,12.6814815 C79.2250725,12.9185185 79.698058,13.037037 80.1710435,13.037037 C80.9396449,13.1555556 81.4126304,13.037037 81.8264928,12.8 L81.8264928,12.8 Z"></path>
                        <path d="M87.9753043,13.6888889 C87.857058,13.5703704 87.7979348,13.4518519 87.7979348,13.2148148 L87.7979348,5.39259259 C87.7979348,5.21481481 87.857058,5.03703704 87.9753043,4.97777778 C88.0935507,4.85925926 88.2709203,4.8 88.4482899,4.8 C88.6256594,4.8 88.803029,4.85925926 88.9212754,4.97777778 C89.0395217,5.0962963 89.0986449,5.21481481 89.0986449,5.39259259 L89.0986449,6.4 C89.3351377,5.86666667 89.6898768,5.39259259 90.2219855,5.03703704 C90.7540942,4.68148148 91.3453261,4.56296296 92.0548043,4.56296296 C92.8234058,4.56296296 93.4146377,4.74074074 93.9467464,5.0962963 C94.4788551,5.45185185 94.8335942,5.98518519 95.0109638,6.75555556 C95.4839493,5.27407407 96.6072899,4.56296296 98.3809855,4.56296296 C98.7948478,4.56296296 99.2087101,4.62222222 99.6225725,4.74074074 C99.9773116,4.85925926 100.332051,5.0962963 100.627667,5.33333333 C100.923283,5.57037037 101.159775,5.98518519 101.337145,6.4 C101.514514,6.87407407 101.573638,7.40740741 101.573638,8 L101.573638,13.1555556 C101.573638,13.3333333 101.514514,13.5111111 101.396268,13.6296296 C101.278022,13.7481481 101.100652,13.8074074 100.923283,13.8074074 C100.745913,13.8074074 100.568543,13.7481481 100.450297,13.6296296 C100.332051,13.5111111 100.272928,13.3925926 100.272928,13.1555556 L100.272928,7.88148148 C100.272928,7.05185185 100.095558,6.45925926 99.7408188,6.04444444 C99.3860797,5.62962963 98.853971,5.39259259 98.1444928,5.39259259 C97.7897536,5.39259259 97.4350145,5.45185185 97.0802754,5.57037037 C96.7255362,5.68888889 96.4299203,5.86666667 96.1934275,6.1037037 C95.8978116,6.34074074 95.720442,6.63703704 95.5430725,7.05185185 C95.3657029,7.46666667 95.3065797,7.88148148 95.3065797,8.41481481 L95.3065797,13.1555556 C95.3065797,13.3333333 95.2474565,13.5111111 95.1292101,13.6296296 C95.0109638,13.7481481 94.8335942,13.8074074 94.6562246,13.8074074 C94.4788551,13.8074074 94.3014855,13.7481481 94.1832391,13.6296296 C94.0649928,13.5111111 94.0058696,13.3925926 94.0058696,13.1555556 L94.0058696,8.2962963 C94.0058696,6.4 93.2963913,5.45185185 91.8774348,5.45185185 C90.990587,5.45185185 90.3402319,5.68888889 89.8081232,6.22222222 C89.2760145,6.75555556 89.0395217,7.52592593 89.0395217,8.47407407 L89.0395217,13.1555556 C89.0395217,13.3333333 88.9803986,13.5111111 88.8621522,13.6296296 C88.7439058,13.7481481 88.5665362,13.8074074 88.3891667,13.8074074 C88.2709203,13.8666667 88.0935507,13.8074074 87.9753043,13.6888889 L87.9753043,13.6888889 Z"></path>
                        <path d="M104.648043,2.25185185 C104.470674,2.07407407 104.411551,1.8962963 104.411551,1.6 C104.411551,1.36296296 104.470674,1.12592593 104.648043,0.948148148 C104.825413,0.77037037 105.061906,0.711111111 105.357522,0.711111111 C105.653138,0.711111111 105.88963,0.77037037 106.067,0.948148148 C106.24437,1.12592593 106.303493,1.3037037 106.303493,1.6 C106.303493,1.83703704 106.24437,2.07407407 106.067,2.25185185 C105.88963,2.42962963 105.653138,2.48888889 105.357522,2.48888889 C105.061906,2.48888889 104.825413,2.42962963 104.648043,2.25185185 L104.648043,2.25185185 Z M104.884536,13.6888889 C104.76629,13.5703704 104.707167,13.3925926 104.707167,13.1555556 L104.707167,5.45185185 C104.707167,5.21481481 104.76629,5.0962963 104.884536,4.97777778 C105.002783,4.85925926 105.180152,4.8 105.357522,4.8 C105.534891,4.8 105.712261,4.85925926 105.830507,4.97777778 C105.948754,5.0962963 106.007877,5.27407407 106.007877,5.45185185 L106.007877,13.1555556 C106.007877,13.3925926 105.948754,13.5111111 105.771384,13.6888889 C105.653138,13.8074074 105.475768,13.8666667 105.298399,13.8666667 C105.121029,13.8666667 105.002783,13.8074074 104.884536,13.6888889 L104.884536,13.6888889 Z"></path>
                        <path d="M109.200529,13.6888889 C109.082283,13.5703704 109.023159,13.4518519 109.023159,13.2148148 L109.023159,5.45185185 C109.023159,5.27407407 109.082283,5.0962963 109.200529,4.97777778 C109.318775,4.85925926 109.496145,4.8 109.673514,4.8 C109.850884,4.8 110.028254,4.85925926 110.1465,4.97777778 C110.264746,5.0962963 110.32387,5.21481481 110.32387,5.45185185 L110.32387,6.45925926 C110.501239,5.86666667 110.915101,5.39259259 111.44721,5.0962963 C111.979319,4.74074074 112.629674,4.62222222 113.339152,4.62222222 C114.40337,4.62222222 115.231094,4.91851852 115.763203,5.51111111 C116.354435,6.1037037 116.650051,6.99259259 116.650051,8.23703704 L116.650051,13.3333333 C116.650051,13.5111111 116.590928,13.6888889 116.472681,13.8074074 C116.354435,13.9259259 116.177065,13.9851852 115.999696,13.9851852 C115.822326,13.9851852 115.644957,13.9259259 115.52671,13.8074074 C115.408464,13.6888889 115.349341,13.5703704 115.349341,13.3333333 L115.349341,8.23703704 C115.349341,6.45925926 114.580739,5.62962963 113.102659,5.62962963 C112.334058,5.62962963 111.742826,5.86666667 111.210717,6.34074074 C110.737732,6.81481481 110.442116,7.52592593 110.382993,8.41481481 L110.382993,13.3333333 C110.382993,13.5111111 110.32387,13.6888889 110.205623,13.8074074 C110.087377,13.9259259 109.910007,13.9851852 109.732638,13.9851852 C109.555268,13.9851852 109.318775,13.8074074 109.200529,13.6888889 L109.200529,13.6888889 Z"></path>
                        <path d="M123.271848,14.0444444 C122.030261,14.0444444 120.966043,13.6296296 120.138319,12.7407407 C119.310594,11.8518519 118.896732,10.7259259 118.896732,9.3037037 C118.896732,8.41481481 119.074101,7.64444444 119.428841,6.93333333 C119.78358,6.22222222 120.256565,5.62962963 120.966043,5.21481481 C121.616399,4.74074074 122.444123,4.56296296 123.330971,4.56296296 C123.922203,4.56296296 124.454312,4.62222222 124.868174,4.8 C125.341159,4.97777778 125.695899,5.15555556 125.991514,5.45185185 C126.28713,5.74814815 126.523623,6.04444444 126.760116,6.45925926 C126.937486,6.87407407 127.114855,7.22962963 127.233101,7.7037037 C127.351348,8.17777778 127.410471,8.59259259 127.410471,9.06666667 C127.410471,9.18518519 127.351348,9.3037037 127.233101,9.42222222 C127.114855,9.54074074 126.996609,9.54074074 126.819239,9.54074074 L120.315688,9.54074074 C120.315688,10.6666667 120.611304,11.5555556 121.202536,12.1481481 C121.793768,12.7407407 122.56237,13.0962963 123.449217,13.0962963 C124.099572,13.0962963 124.631681,12.9777778 125.045543,12.8 C125.518529,12.562963 125.932391,12.3259259 126.405377,11.9111111 C126.523623,11.7925926 126.64187,11.7925926 126.760116,11.7925926 C126.878362,11.7925926 126.996609,11.8518519 127.055732,11.9111111 C127.114855,11.9703704 127.173978,12.0888889 127.173978,12.2074074 C127.173978,12.3851852 127.114855,12.5037037 126.937486,12.6814815 C126.523623,13.0962963 125.991514,13.4518519 125.459406,13.6888889 C124.809051,13.9259259 124.158696,14.0444444 123.271848,14.0444444 L123.271848,14.0444444 L123.271848,14.0444444 Z M126.168884,8.71111111 C126.109761,7.76296296 125.873268,6.99259259 125.400283,6.4 C124.927297,5.80740741 124.276942,5.51111111 123.390094,5.51111111 C122.503246,5.51111111 121.734645,5.80740741 121.202536,6.45925926 C120.670428,7.05185185 120.374812,7.82222222 120.315688,8.71111111 L126.168884,8.71111111 L126.168884,8.71111111 Z"></path>
                    </g>
                </g>
            </g>
        </g>
    </g>
</svg>